<svg id="visual" viewBox="0 0 900 600" width="900" height="600" xmlns="http://www.w3.org/2000/svg" xmlns:xlink="http://www.w3.org/1999/xlink" version="1.1"><path d="M0 41L25 47.8C50 54.7 100 68.3 150 70.5C200 72.7 250 63.3 300 58.3C350 53.3 400 52.7 450 53.3C500 54 550 56 600 61.3C650 66.7 700 75.3 750 73.5C800 71.7 850 59.3 875 53.2L900 47L900 0L875 0C850 0 800 0 750 0C700 0 650 0 600 0C550 0 500 0 450 0C400 0 350 0 300 0C250 0 200 0 150 0C100 0 50 0 25 0L0 0Z" fill="#f4f6ff" stroke-linecap="round" stroke-linejoin="miter"></path></svg>