<!-- <svg xmlns="http://www.w3.org/2000/svg" xmlns:xlink="http://www.w3.org/1999/xlink" id="visual" version="1.1" viewBox="203.74 71.51 492.52 456.97"><g transform="translate(456.16500024128544 264.5726612086267)"><path d="M149.3 -186.3C195.9 -171.6 237.7 -131.2 240 -86.8C242.2 -42.4 204.8 6 185.9 59.3C167 112.6 166.7 170.8 138.8 209.9C110.9 249 55.4 269 4.5 262.8C-46.4 256.6 -92.9 224.2 -140.4 191.4C-188 158.7 -236.6 125.7 -249.1 82.2C-261.5 38.6 -237.8 -15.5 -201.2 -46.1C-164.7 -76.7 -115.4 -83.9 -79.8 -102.1C-44.1 -120.3 -22 -149.7 14.6 -169.8C51.3 -190 102.7 -201 149.3 -186.3" ></path></g></svg> -->
<svg xmlns="http://www.w3.org/2000/svg" viewBox="9.88 13.8 178.67 163.56">   <path fill="#7099e4" d="M33.2,-59.9C45.3,-50.5,59,-46.2,70.4,-37.1C81.7,-28,90.7,-14,88.1,-1.5C85.5,11,71.4,22.1,60.7,32.2C49.9,42.4,42.6,51.7,33,59.9C23.5,68.1,11.7,75.3,-1,77C-13.7,78.6,-27.3,74.8,-33.5,64.7C-39.8,54.5,-38.5,38,-48.3,26.2C-58.1,14.4,-78.8,7.2,-86.5,-4.4C-94.2,-16,-88.7,-32.1,-78.6,-43.3C-68.5,-54.6,-53.8,-61.2,-39.9,-69.5C-26.1,-77.9,-13,-88.1,-1.2,-85.9C10.5,-83.8,21.1,-69.3,33.2,-59.9Z" transform="translate(100 100)"></path> </svg>