
<svg xmlns="http://www.w3.org/2000/svg" viewBox="9.88 13.8 178.67 163.56">   <path fill="#8f9fef" d="M33.2,-59.9C45.3,-50.5,59,-46.2,70.4,-37.1C81.7,-28,90.7,-14,88.1,-1.5C85.5,11,71.4,22.1,60.7,32.2C49.9,42.4,42.6,51.7,33,59.9C23.5,68.1,11.7,75.3,-1,77C-13.7,78.6,-27.3,74.8,-33.5,64.7C-39.8,54.5,-38.5,38,-48.3,26.2C-58.1,14.4,-78.8,7.2,-86.5,-4.4C-94.2,-16,-88.7,-32.1,-78.6,-43.3C-68.5,-54.6,-53.8,-61.2,-39.9,-69.5C-26.1,-77.9,-13,-88.1,-1.2,-85.9C10.5,-83.8,21.1,-69.3,33.2,-59.9Z" transform="translate(100 100)"></path> </svg>