<svg id="visual" viewBox="0 0 900 600" width="900" height="600" xmlns="http://www.w3.org/2000/svg" xmlns:xlink="http://www.w3.org/1999/xlink" version="1.1"><g transform="translate(431.0082827685297 283.26216408946715)"><path d="M163.6 -201.8C203.3 -161.6 220.8 -101.8 244 -33.7C267.1 34.5 295.9 111 277 175C258 239 191.3 290.5 126.4 288.6C61.6 286.8 -1.3 231.5 -67.6 200.8C-134 170.1 -203.8 164.1 -230.9 128C-257.9 92 -242.2 26 -219.4 -27.5C-196.6 -81 -166.8 -122.1 -129 -162.6C-91.3 -203.1 -45.6 -243.1 8.1 -252.8C61.9 -262.5 123.8 -241.9 163.6 -201.8" fill="#ffcfcf"></path></g></svg>