<svg id="visual" viewBox="0 0 900 600" width="900" height="600" xmlns="http://www.w3.org/2000/svg" xmlns:xlink="http://www.w3.org/1999/xlink" version="1.1"><g transform="translate(456.0526394410364 335.77895673150454)"><path d="M152 -214.3C194.6 -178.2 225.2 -130.7 215.7 -87.2C206.2 -43.8 156.6 -4.5 134.5 37.6C112.5 79.8 118 124.9 100.1 157.4C82.3 189.9 41.1 210 4.4 203.9C-32.3 197.8 -64.7 165.7 -97.3 137.9C-130 110.2 -162.9 86.9 -188.8 51C-214.6 15.1 -233.3 -33.4 -228.9 -82.8C-224.4 -132.3 -196.9 -182.6 -154.9 -219C-112.9 -255.3 -56.4 -277.7 -0.9 -276.5C54.7 -275.2 109.3 -250.5 152 -214.3" fill="#4FACF7"></path></g></svg>