<svg xmlns="http://www.w3.org/2000/svg" viewBox="12.85 33.17 164.9 141.95">   <path fill="#9AE2DC" d="M39.6,-60.7C50.7,-54.4,58.8,-42.5,65.9,-29.4C73,-16.3,79.1,-2,77.5,11.3C75.8,24.6,66.4,37,56.1,48.2C45.8,59.3,34.5,69.2,21.5,73.1C8.4,76.9,-6.4,74.7,-22.2,71.8C-38,68.9,-54.7,65.4,-66.3,55.5C-77.9,45.6,-84.5,29.3,-86.5,12.7C-88.5,-4,-86,-21.1,-77,-32.8C-67.9,-44.5,-52.3,-50.8,-38.4,-55.8C-24.5,-60.8,-12.2,-64.6,1,-66.1C14.2,-67.7,28.4,-67,39.6,-60.7Z" transform="translate(100 100)"></path> </svg>