<svg xmlns="http://www.w3.org/2000/svg" viewBox="29.15 26.19 150.36 135.56">   <path fill="#DCE0FC" d="M36.6,-55.9C49.9,-48.4,64.8,-42.4,72.6,-31.4C80.4,-20.3,81.2,-4.3,77,9.7C72.8,23.6,63.6,35.3,53.1,44.1C42.5,52.8,30.7,58.4,18.7,60.6C6.7,62.7,-5.5,61.3,-20.7,61.2C-36,61,-54.5,62.1,-63.5,53.8C-72.5,45.6,-72.1,27.9,-68.3,13.6C-64.5,-0.8,-57.4,-11.9,-52.2,-24.1C-47.1,-36.4,-43.9,-49.8,-35.5,-59.5C-27.1,-69.2,-13.6,-75,-0.9,-73.6C11.7,-72.1,23.3,-63.3,36.6,-55.9Z" transform="translate(100 100)"></path> </svg>