<svg xmlns="http://www.w3.org/2000/svg" xmlns:xlink="http://www.w3.org/1999/xlink" id="visual" version="1.1" viewBox="203.74 71.51 492.52 456.97"><g transform="translate(456.16500024128544 264.5726612086267)"><path d="M149.3 -186.3C195.9 -171.6 237.7 -131.2 240 -86.8C242.2 -42.4 204.8 6 185.9 59.3C167 112.6 166.7 170.8 138.8 209.9C110.9 249 55.4 269 4.5 262.8C-46.4 256.6 -92.9 224.2 -140.4 191.4C-188 158.7 -236.6 125.7 -249.1 82.2C-261.5 38.6 -237.8 -15.5 -201.2 -46.1C-164.7 -76.7 -115.4 -83.9 -79.8 -102.1C-44.1 -120.3 -22 -149.7 14.6 -169.8C51.3 -190 102.7 -201 149.3 -186.3" fill="#9ae2dc"></path></g></svg>