<svg xmlns="http://www.w3.org/2000/svg" viewBox="13.63 29.96 166.09 133.62">   <path fill="#7688E9" d="M47.7,-68.6C62.3,-64.8,75.1,-52.5,78.6,-37.9C82.2,-23.3,76.6,-6.6,69.1,6.3C61.7,19.2,52.4,28.3,43.7,37.1C34.9,46,26.8,54.6,16.3,59.4C5.9,64.1,-6.7,65,-17.7,61.3C-28.8,57.7,-38.2,49.5,-51.2,40.8C-64.2,32.2,-80.7,23.1,-85.1,10.6C-89.5,-1.9,-81.7,-17.8,-73.4,-32.6C-65.2,-47.4,-56.6,-61,-44.3,-65.9C-32,-70.7,-16,-66.7,0.3,-67.1C16.5,-67.5,33.1,-72.4,47.7,-68.6Z" transform="translate(100 100)"></path> </svg>