<svg xmlns="http://www.w3.org/2000/svg" fill="none" viewBox="0.73 0.5 473.64 521.27"><path d="M40.9971 38.2236C75.8062 5.159 135.631 -10.8133 183.249 9.51923C230.826 29.9386 266.156 86.7497 314.32 129.964C362.485 173.178 423.527 202.708 453.028 246.594C482.53 290.48 480.492 348.723 452.83 389.795C425.168 430.868 371.798 454.944 317.593 479.687C263.451 504.568 208.578 530.165 157.668 519.141C106.694 507.979 59.6826 460.196 42.7284 413.031C25.7326 365.953 38.6472 319.53 34.3095 279.47C30.0134 239.323 8.29631 205.35 2.37723 163.466C-3.6054 121.445 6.18797 71.2881 40.9971 38.2236Z" fill="#C3CBF8"></path></svg>