<svg xmlns="http://www.w3.org/2000/svg" fill="none" viewBox="0.14 0.18 763.69 960.66"><path d="M558.329 2.02251C642.55 13.331 730.962 78.1017 755.766 166.328C780.404 254.593 741.269 366.352 735.127 480.722C728.985 595.093 756.002 712.035 728.223 801.416C700.445 890.798 617.87 952.618 530.537 960.051C443.204 967.484 350.781 920.607 256.51 873.318C162.121 826.269 65.9318 779.008 24.6396 696.572C-16.5341 613.896 -2.81099 496.045 43.4126 420.328C89.4703 344.65 167.815 310.944 218.243 260.509C268.836 210.034 291.583 142.388 342.771 87.7479C394.077 32.8678 474.108 -9.28595 558.329 2.02251Z" fill="#7688E9"></path></svg>