<svg xmlns:dc="http://purl.org/dc/elements/1.1/" xmlns:cc="http://creativecommons.org/ns#" xmlns:rdf="http://www.w3.org/1999/02/22-rdf-syntax-ns#" xmlns:svg="http://www.w3.org/2000/svg" xmlns="http://www.w3.org/2000/svg" xmlns:sodipodi="http://sodipodi.sourceforge.net/DTD/sodipodi-0.dtd" xmlns:inkscape="http://www.inkscape.org/namespaces/inkscape" version="1.1" x="0px" y="0px" viewBox="0 0 100 125"><g transform="translate(0,-952.36218)" height="50px" style="width: auto;"><path style="text-indent:0;text-transform:none;direction:ltr;block-progression:tb;baseline-shift:baseline;color:#ffffff;enable-background:accumulate;" d="m 12,975.36216 c -3.2892998,0 -5.9999999,2.7107 -5.9999999,6 l 0,42.00004 c 0,3.2893 2.7107001,6 5.9999999,6 l 76,0 c 3.2893,0 6,-2.7107 6,-6 l 0,-42.00004 c 0,-3.2893 -2.7107,-6 -6,-6 l -76,0 z m 1.218801,4 73.562399,0 -34.9374,30.34384 c -0.891399,0.7742 -2.796199,0.7742 -3.6876,0 L 13.218801,979.36216 z m -3.2188013,2.5 24.6250003,21.40624 -24.6250003,19.7188 0,-41.12504 z M 90,981.86216 90,1022.9872 65.375,1003.2684 90,981.86216 z m -52.3125,24.06254 7.8437,6.8125 c 2.5499,2.2149 6.3877,2.2149 8.9376,0 l 7.8437,-6.8125 24.25,19.4375 -73.125,0 24.25,-19.4375 z" fill="#ffffff" fill-opacity="1" stroke="none" marker="none" visibility="visible" display="inline" overflow="visible"/></g></svg>