<svg xmlns="http://www.w3.org/2000/svg" data-name="Layer 1" viewBox="0 0 64 80" x="0px" y="0px"><title>dog</title><path d="M27.71,29.13a3.75,3.75,0,0,0-3.81,1,.49.49,0,0,0,.05.68.51.51,0,0,0,.32.12.5.5,0,0,0,.37-.17,2.77,2.77,0,0,1,2.8-.73.48.48,0,1,0,.27-.93Z"/><path d="M5.86,3.65A.49.49,0,0,0,5.81,4c.22.74,5.45,18.08,9.85,20.06a9.34,9.34,0,0,0,2.61.77c-.47.86-.86,1.68-1.11,2.21a4,4,0,0,1-.24.5A7.17,7.17,0,0,0,16,31a20.65,20.65,0,0,1-2.27,1.24,5.26,5.26,0,0,0-.86.41,2.88,2.88,0,0,0-1.42,2h0a3.35,3.35,0,0,0-.08.54,3.88,3.88,0,0,0,.72,2.27c.81,2,1.79,3.89,3.43,4.54A7.81,7.81,0,0,0,22,46a9.37,9.37,0,0,1,6,2.1l2.91,5s0,0,0,0A9.65,9.65,0,0,0,35.67,58l1.45,4.69a.48.48,0,0,0,.46.34h.1c13.15-2.73,20.2-19.6,20.5-20.32a.5.5,0,0,0-.2-.6l-5.45-3.34-4.12-3.51a.45.45,0,0,0-.34-.1l-.67-.6c-.13-.25-.53-1-1.16-2.06a5.24,5.24,0,0,0,0-1.25,4.47,4.47,0,0,0-2.54-3.54c-.66-.41-1.18-.73-1.34-1.37-.11-.46-.5-1.2-2.23-2.48l.46.08a2.78,2.78,0,0,0,.51,0,2.87,2.87,0,0,0,2.86-2.87.49.49,0,0,0-.45-.48,5.4,5.4,0,0,1-2.6-1.1l-.16-.11a10.27,10.27,0,0,0,.46-1.62,1.18,1.18,0,0,0-1.51-1.37l-.79.24-.09,0a6.65,6.65,0,0,1-3.38.64,18.18,18.18,0,0,1-2.08-1.37C32,14.94,30.66,14,29.2,14a24.43,24.43,0,0,0-6.14,1.19L20.25,1.39A.48.48,0,0,0,19.69,1L6.19,3.42A.49.49,0,0,0,5.86,3.65Zm7.59,34A4,4,0,0,1,13,37l0-.13-.28-.7a2.57,2.57,0,0,1-.22-1.31,2.43,2.43,0,0,1,.92-1.3c1-.09,2.55,0,2.77.59a2,2,0,0,1-.76,2.66c-.28.13-.54.27-.77.39C14.05,37.47,13.58,37.71,13.45,37.6ZM37.91,62l-1.26-4.12c1.57-1.13,9.14-6.91,15.76-18l4.71,2.88C56,45.18,49.25,59.27,37.91,62ZM36,57.07a9.08,9.08,0,0,1-3.39-2.86.42.42,0,0,0-.06-.19l-.22-.38a9,9,0,0,0,4.05-2.51,83.88,83.88,0,0,0,11.79-14.8l3.41,2.9C45,50.38,37.44,56.08,36,57.07ZM46.69,35.19l.71.62A83.26,83.26,0,0,1,35.74,50.43c-2,2-3.65,2.4-3.91,2.28l-3-5.18a.36.36,0,0,0-.07-.1A10.09,10.09,0,0,0,22,45a6.61,6.61,0,0,1-5.2-2.78,4.19,4.19,0,0,0,1.56-.36,17.36,17.36,0,0,0,3.85.47A8.21,8.21,0,0,0,27.07,41a6.83,6.83,0,0,1,2.86-1.3.48.48,0,0,0,.4-.55.47.47,0,0,0-.56-.4,7.75,7.75,0,0,0-3.28,1.47c-2.76,2-8,.64-8,.63a.47.47,0,0,0-.33,0,2.79,2.79,0,0,1-2.25.19,4.84,4.84,0,0,1-2.23-2.52A4.28,4.28,0,0,0,15,38.07c.22-.12.47-.25.74-.37A3,3,0,0,0,17,33.81a2.22,2.22,0,0,0-1.86-1.15c.77-.43,1.59-.93,1.64-1a.47.47,0,0,0,.22-.51,5.5,5.5,0,0,1,.76-3.11c0-.09.15-.29.28-.58.29-.61.75-1.6,1.32-2.59a4.85,4.85,0,0,0,2.86-1,18.6,18.6,0,0,0,6,1.12,9,9,0,0,0,6.09-2,8.24,8.24,0,0,1,.4,3.9c-.81,4.37-1.7,9.68-1.27,12,.3,1.63.9,2.67,1.78,3.09a2.06,2.06,0,0,0,.94.22,3.23,3.23,0,0,0,1.52-.43A6.86,6.86,0,0,0,39.85,40a4.54,4.54,0,0,1,1.73-1.42,8.66,8.66,0,0,0,4.35-4.69c.41.73.65,1.19.65,1.19A.83.83,0,0,0,46.69,35.19ZM41.4,26.54a3.29,3.29,0,0,0,1.77,1.95,3.55,3.55,0,0,1,2.09,2.85,3.89,3.89,0,0,1,0,1.18,7.31,7.31,0,0,1-4.06,5.12,5.41,5.41,0,0,0-2.08,1.69,6,6,0,0,1-1.86,1.6,1.73,1.73,0,0,1-1.58.19c-.59-.28-1-1.11-1.26-2.39-.44-2.42.8-9.1,1.27-11.62A9,9,0,0,0,35.34,23l.62.11h0l1.77.31C40.71,25.25,41.31,26.16,41.4,26.54ZM19.4,2l2.82,13.88a.5.5,0,0,0,.23.32.51.51,0,0,0,.4,0A25.85,25.85,0,0,1,29.2,15c1.15,0,2.33.85,3.57,1.75l.38.27c-.77-.17-1.27-.35-1.29-.35a.48.48,0,1,0-.33.91c.19.07,4.62,1.63,7.69,0l.75-.23a.22.22,0,0,1,.21.05.22.22,0,0,1,.06.2,8.71,8.71,0,0,1-.56,1.83c-.45.95-1.88,1-1.9,1a.49.49,0,0,0,0,1,3.5,3.5,0,0,0,2.5-1.08l.09.05a6.81,6.81,0,0,0,2.55,1.19A1.89,1.89,0,0,1,41.08,23a1.72,1.72,0,0,1-.34,0l-2.65-.46H38l-1.82-.31,0,0-1.72-.29A.49.49,0,0,0,34,22c-.13.16-3.35,3.86-11.72.86a.48.48,0,0,0-.52.13,3.67,3.67,0,0,1-2.68.95,7.37,7.37,0,0,1-3-.74C12.85,21.77,8.51,9.53,6.89,4.28Z"/><path d="M47.53,16.44a.47.47,0,0,0,.47.36h.12a.49.49,0,0,0,.35-.59,7.42,7.42,0,0,0-3.26-4.85,7.88,7.88,0,0,0-5.51-.81.47.47,0,0,0-.35.58.48.48,0,0,0,.58.36,7,7,0,0,1,4.78.7A6.5,6.5,0,0,1,47.53,16.44Z"/><path d="M43.42,13.21a4.91,4.91,0,0,0-3.41-.5.49.49,0,1,0,.24.94,3.92,3.92,0,0,1,2.67.39,3.69,3.69,0,0,1,1.58,2.4.47.47,0,0,0,.47.36h.11a.49.49,0,0,0,.36-.59A4.58,4.58,0,0,0,43.42,13.21Z"/></svg>