<svg xmlns="http://www.w3.org/2000/svg" version="1.1" viewBox="-5.0 -10.0 110.0 135.0" height="50px" style="width: auto;">
  <path d="m73.5 83.699c3.6016-0.39844 6.6992-2.6016 8.6016-6.1992 2.5-4.8008 2.6016-11.199 0.10156-15.801-0.19922-0.39844-0.60156-0.69922-1.1016-0.80078l-22.199-3.5c-0.5-0.10156-0.89844 0.10156-1.3008 0.39844-1.3008 1.3008-2.3984 2.8008-3.1992 4.3984-7.4023-3.2969-13.301-9.1953-16.703-16.594 1.6016-0.80078 3.1992-1.8984 4.3984-3.1992 0.30078-0.30078 0.5-0.80078 0.39844-1.3008l-3.5-22.199c-0.10156-0.39844-0.30078-0.80078-0.69922-1-4.3984-2.8984-10.699-2.1016-15-0.10156-4.1992 2-6.8008 5.1992-7.1992 8.6992-1.6016 15.602 3.8984 30.898 15.102 42.102 10.102 9.8984 23.301 15.398 37 15.398 1.8008 0 3.5-0.10156 5.3008-0.30078zm-40-17.199c-10.5-10.5-15.699-25-14.199-39.699 0.19922-2.3984 2.3008-4.8008 5.5-6.3008 2.1016-1 4.5-1.5 6.6016-1.5 1.8008 0 3.5 0.39844 4.8008 1.1016l3.3008 20.801c-1.1992 1.1016-2.6992 2-4.1992 2.6016-0.39844 0.10156-0.69922 0.39844-0.89844 0.80078-0.19922 0.39844-0.19922 0.80078 0 1.1992 3.6992 9.1992 11.102 16.5 20.199 20.199 0.39844 0.19922 0.80078 0.10156 1.1992 0 0.39844-0.19922 0.69922-0.5 0.80078-0.89844 0.60156-1.5 1.3984-3 2.6016-4.1992l20.699 3.3008c1.6992 3.6992 1.6016 8.6016-0.39844 12.301-1.3984 2.6992-3.6992 4.3984-6.3008 4.6016-14.707 1.3906-29.207-3.8086-39.707-14.309z" style="fill: #ffffff;" />
</svg>
