<svg xmlns="http://www.w3.org/2000/svg" xmlns:xlink="http://www.w3.org/1999/xlink" version="1.1" x="0px" y="0px" viewBox="0 0 100 125" style="enable-background:new 0 0 100 100;" xml:space="preserve"><style type="text/css">
	.st0{display:none;}
</style><g><g><path d="M26.98,29.99c4.7,0,8.53-3.83,8.53-8.53s-3.83-8.53-8.53-8.53s-8.53,3.83-8.53,8.53S22.28,29.99,26.98,29.99z     M26.98,13.93c4.15,0,7.53,3.38,7.53,7.53s-3.38,7.53-7.53,7.53s-7.53-3.38-7.53-7.53S22.83,13.93,26.98,13.93z"/><path d="M88.45,60.75c-3.73-1.08-4.41-5.06-4.44-5.23l-0.04-0.24l-0.21-0.12c-4.44-2.48-11.29-1.47-11.58-1.42l-1.01,0.15    l2.94,2.79l-4.26,4.17l8.97,5.08l0.32-0.92c6.98,2.04,9.59-3.52,9.62-3.58L89,60.92L88.45,60.75z M78.99,63.93l-0.47-0.16    l-0.25,0.71l-6.77-3.84l4.05-3.96l-2.17-2.07c2.02-0.17,6.54-0.33,9.69,1.31c0.21,0.95,1.17,4.29,4.51,5.58    C86.8,62.74,84.29,65.7,78.99,63.93z"/><path d="M76.21,72.33c0.34-0.81,0.71-1.72,1.11-2.72c0.38-0.93,0.71-1.76,0.93-2.26l0.18-0.41l-9.1-5.23l-1.28-0.03l1.88-1.85    l-24.29-11l-0.34,0.46c0.21-0.74,0.13-1.6-0.25-2.54c-0.37-0.91-1-1.7-1.83-2.29l-8.5-6.04c-0.06-1.77-0.7-3.39-1.83-4.58    c-0.81-0.86-1.78-1.45-2.88-1.75c-0.92-0.26-1.96-0.35-3.09-0.27c-2.57,0.17-5.05,1.33-6.98,3.28c-2.41,2.44-6.68,6.75-8.13,8.31    c-0.4,0.42-0.61,0.98-0.61,1.57V57c0,1.06,0.68,3.08,3.27,3.12c0.17,0,0.34,0,0.5-0.02c2.05-0.18,3.65-2.01,3.64-4.17l-0.04-8.45    c0-0.14,0.05-0.27,0.15-0.37l0.47-0.47l0.09,12.91c-0.41,1.3-5.97,18.98-6.33,20.11c-0.8,2.51,0,4.34,2.38,5.43    c0.6,0.27,1.22,0.41,1.83,0.41c0.53,0,1.05-0.1,1.55-0.31c0.85-0.36,2.03-1.22,2.76-3.28l5.63-17.2l5.48,16.84    c0.32,0.98,0.79,1.82,1.39,2.51c0.87,0.99,2.62,1.87,4.67,1.08c2-0.77,3.19-3.76,2.45-6.16l-6.17-20.05l-0.1-11.06l4.25,2.66    c1.07,0.55,2.22,1.03,3.28,1.03c0.58,0,1.13-0.17,1.64-0.52l-0.01,0.01l23.8,10.62l-13.9-0.31c-2.15,0-3.69-1.82-3.75-1.88    c-0.22-0.21-2.18-2-3.61-1.59c-0.43,0.12-0.76,0.38-0.93,0.75c-0.37,0.77,0.01,1.74,0.05,1.84l0.06,0.1    c1.9,2.66,5.46,4.06,6.61,4.46l-0.14,6.14l-2.35,10.17c-0.02,0.07-0.5,1.8,0.27,2.96c0.36,0.55,0.92,0.87,1.67,0.96    c2,0.24,2.82-1.05,2.97-1.75l2.07-8.61l2.02,9c0.2,0.59,0.89,1.5,2.22,1.5c0.31,0,0.64-0.05,1.02-0.16    c0.65-0.19,1.13-0.58,1.42-1.13c0.61-1.18,0.1-2.73,0.09-2.75l-1.5-6.5c2.85,0.52,5.84,0.78,7,0.87l-1.38,6.65    c-0.15,0.83,0.03,2.5,1.85,2.89c0.17,0.04,0.35,0.05,0.52,0.05c1.29,0,2.5-0.93,2.82-2.27l0.83-3.4l1.92,3.95    c0.39,0.79,1.01,1.39,1.75,1.67c0.31,0.12,0.6,0.17,0.88,0.17c0.73,0,1.36-0.38,1.84-1.13c0.91-1.41,0.29-3,0.25-3.09L76.21,72.33    z M40.12,79.28c0.58,1.87-0.36,4.36-1.86,4.93c-1.58,0.61-2.9-0.06-3.56-0.81c-0.51-0.59-0.92-1.32-1.19-2.16l-5.6-17.2    c-0.12-0.36-0.45-0.6-0.83-0.61c-0.41,0.01-0.72,0.24-0.83,0.6L20.5,81.58c-0.48,1.35-1.25,2.28-2.21,2.68    c-0.8,0.34-1.71,0.31-2.57-0.09c-1.92-0.88-2.49-2.18-1.84-4.22c0.37-1.17,6.36-20.19,6.36-20.19l0.02-0.08l-0.1-13.85    c0-0.27-0.17-0.52-0.42-0.62c-0.08-0.03-0.17-0.05-0.26-0.05c-0.18,0-0.35,0.07-0.48,0.2l-1,1.04c-0.29,0.29-0.45,0.67-0.45,1.08    l0.04,8.45c0.01,1.65-1.19,3.04-2.72,3.17c-0.13,0.01-0.26,0.02-0.4,0.01c-2.2-0.04-2.28-1.91-2.29-2.12V44.96    c0-0.33,0.12-0.64,0.34-0.88c1.44-1.54,5.7-5.85,8.11-8.28c1.75-1.77,4-2.83,6.33-2.98c1.02-0.07,1.95,0.01,2.75,0.24    c0.92,0.26,1.74,0.76,2.42,1.48c1,1.05,1.55,2.51,1.57,4.11l0.19,20.38L40.12,79.28z M44.01,49.66L44.01,49.66    c-0.76,1.03-1.77,1.38-4.46,0.01l-4.76-2.98l-0.06-7.03l7.9,5.61c0.68,0.48,1.19,1.12,1.48,1.85S44.62,48.87,44.01,49.66z     M67.75,60.57l-22.22-9.92l0.42-0.57l22.23,10.07L67.75,60.57z M62.59,81.66c0,0.01,0.4,1.22-0.02,2.02    c-0.16,0.31-0.43,0.52-0.81,0.63c-1.51,0.45-1.94-0.51-1.99-0.65l-2.24-10c0.93,0.4,2.14,0.73,3.45,1.01L62.59,81.66z     M73.82,74.96l-1.91,7.88c-0.24,1-1.22,1.66-2.23,1.46c-1.23-0.27-1.04-1.57-1.01-1.71l1.4-6.75l0.01-1.02l-0.47-0.03    c-0.1-0.01-9.92-0.67-12.5-2.48l-0.6-0.42l-2.75,11.42c-0.03,0.12-0.32,1.18-1.87,0.99c-0.45-0.05-0.76-0.23-0.96-0.52    c-0.43-0.64-0.24-1.76-0.13-2.16l2.37-10.25l0.17-7.04l-0.37-0.11c-0.04-0.01-4.36-1.34-6.41-4.15c-0.08-0.23-0.19-0.71-0.06-0.98    c0.04-0.08,0.1-0.17,0.31-0.23c0.64-0.19,1.94,0.68,2.61,1.31c0.07,0.09,1.85,2.2,4.46,2.2l15.18,0.34l8.1,4.66    c-0.21,0.5-0.47,1.15-0.76,1.88c-0.82,2.04-2.06,5.11-2.5,5.63L73.82,74.96z M79.25,83.8c-0.41,0.63-0.88,0.8-1.53,0.56    c-0.5-0.19-0.93-0.61-1.21-1.18l-2.45-5.04l0.66-2.73c0.24-0.33,0.56-0.98,0.94-1.85l3.75,8.09    C79.43,81.66,79.89,82.82,79.25,83.8z"/></g></g></svg>