<svg xmlns="http://www.w3.org/2000/svg" version="1.1" viewBox="3.13 3.13 93.75 93.75"> <path d="m70.961 64.977c1.2227 1.2227 1.2227 3.1953 0 4.418-0.60938 0.60938-1.4102 0.91406-2.2109 0.91406s-1.6016-0.30469-2.2109-0.91406l-18.75-18.75c-0.58594-0.58594-0.91406-1.3828-0.91406-2.2109v-28.121c0-1.7266 1.3984-3.125 3.125-3.125s3.125 1.3984 3.125 3.125v26.832l17.836 17.836zm25.914-14.977c0 25.848-21.027 46.875-46.875 46.875s-46.875-21.027-46.875-46.875 21.027-46.875 46.875-46.875 46.875 21.027 46.875 46.875zm-6.25 0c0-22.398-18.227-40.625-40.625-40.625s-40.625 18.227-40.625 40.625 18.227 40.625 40.625 40.625 40.625-18.227 40.625-40.625z" style="fill: #ffffff;"></path></svg>