<svg xmlns="http://www.w3.org/2000/svg" version="1.1" viewBox="5 8.31 90 83.38"> <path d="m93.547 64.215c0.80078 0 1.4453-0.64844 1.4453-1.4453 0-0.80078-0.64844-1.4453-1.4453-1.4453h-8.1289c0.84375-7.7773-0.91016-15.676-5.043-22.223 1.8555-0.98047 4.0195-2.4727 6.543-4.5039 7.6875-6.793 9.9062-13.617 6.5938-20.289-1.7812-3.5625-5.9688-5.5625-9.0977-5.9141-3.0742-0.36328-6.207 0.45312-8.6953 2.2461-2.0898-1.5117-4.6133-2.3281-7.2305-2.3281-0.48438 0-0.97266 0.027344-1.4453 0.085938-3.1367 0.35156-7.3242 2.3516-9.1055 5.9141-1.5508 3.0977-1.8867 6.2305-1.0391 9.3828-7.8594-1.2812-15.992 0.20703-22.879 4.2227-0.54688-1.082-1.3047-2.0703-2.2812-2.9492-0.37891-0.34766-0.91406-0.46094-1.4023-0.30859-0.48828 0.15234-0.85938 0.55078-0.97656 1.0508-0.53125 2.2695-1.9883 3.4062-4.2852 4.4375-1.0781-0.64063-2.3281-1.0117-3.6719-1.0117-3.6562 0-6.6797 2.7461-7.1445 6.2891-3.4102 2.7969-5.6289 6.8398-6.75 12.363-0.19531 0.97266 0.0625 1.9648 0.70313 2.7227 0.64453 0.75781 1.5312 1.1719 2.4961 1.1719h2.1562c0.72656 1.8008 1.8906 2.8906 3.6172 3.3555 0.13281 0.71875 0.31641 1.4883 0.57031 2.3359-1.7734 0.48828-3.1367 2.0508-3.3203 3.957l-7.2852-0.011719c-0.80078 0-1.4453 0.64844-1.4453 1.4453 0 0.80078 0.64844 1.4453 1.4453 1.4453h29.469c0.62109 0.078124 1.1992 0.32422 1.6406 0.74609 0.35937 0.33984 0.60937 0.76953 0.76562 1.2695h-8.0508-0.011719-23.812c-0.80078 0-1.4453 0.64844-1.4453 1.4453 0 0.80078 0.64844 1.4453 1.4453 1.4453h15.879c0.21875 6.5039 4.4414 13.598 10.516 17.359 5.5273 3.4258 12.375 5.2148 19.047 5.2148 4.1055 0 8.1445-0.67969 11.766-2.0703 9.4844-3.6289 16.699-11.055 20.008-20.5h9.8867c0.80078 0 1.4453-0.64844 1.4453-1.4453s-0.64844-1.4453-1.4453-1.4453h-9.0156c0.17188-0.66797 0.32422-1.3398 0.45312-2.0156zm-33.02-48.613c1.2383-2.4805 4.3789-4.0586 6.8477-4.332 0.36719-0.042969 0.74219-0.066406 1.1133-0.066406 2.3203 0 4.5469 0.83984 6.2656 2.3672 0.54688 0.48438 1.3711 0.48828 1.918 0.003907 2.0156-1.7734 4.6797-2.6289 7.4141-2.3047 2.4609 0.27344 5.5977 1.8516 6.8359 4.3281 2.6953 5.4258 0.75781 10.934-5.8672 16.789-3.6641 2.9453-6.5234 4.6875-8.5 5.1641l-0.12891 0.035157c-0.44141 0.15234-0.95312 0.15234-1.3984 0-0.042969-0.015626-0.085938-0.027344-0.12891-0.035157-1.9766-0.48047-4.8359-2.2188-8.4492-5.125-6.6953-5.8984-8.6328-11.402-5.9219-16.824zm-39.121 16.422c2.3945 0 4.3398 1.9453 4.3398 4.3398 0 2.3828-1.9453 4.3203-4.3398 4.3203-2.3828 0-4.3203-1.9375-4.3203-4.3203 0-2.3945 1.9375-4.3398 4.3203-4.3398zm-3.1719 28.074h0.76953c0.47266 0 0.91016-0.22656 1.1836-0.61328 0.26953-0.38281 0.33984-0.87891 0.17969-1.3203-0.38281-1.0781-0.66406-2.0195-0.86328-2.8672h2.6992c-0.56641 1.6602-0.5625 3.7031 0.83594 6.0234h-6.3711c0.1875-0.70312 0.82422-1.2227 1.5664-1.2227zm37.773-4.8008h5.1758c1.3125 0 2.3008 0.37891 2.9375 1.1211 0.83203 0.96875 1.1367 2.6289 0.83984 4.5703-0.015626 0.10938-0.039063 0.21875-0.058594 0.33203h-6.6289c-0.52734-1.2891-1.625-2.2969-2.9883-2.668 0.36719-1.2266 0.60156-2.3398 0.72266-3.3555zm7.4336 10.934h-4.8203v-0.03125-1.9805l5.5781-0.003906c-0.21875 0.67969-0.47266 1.3516-0.75781 2.0156zm-5.8945 2.8906h4.3711c-3.5156 5.6055-9.6055 9.6445-16.922 8.7148-5.1445-0.65625-10.043-3.0625-12.188-5.9805-0.66406-0.89844-1.0312-1.8125-1.1211-2.7305h6.4219c-0.44531 0.92578-1.2422 1.6602-2.2383 1.9766-0.52734 0.16797-0.91406 0.62109-0.99609 1.1719-0.082031 0.55078 0.16016 1.0977 0.62109 1.4062 1.3633 0.92187 2.8359 1.3789 4.2656 1.3789 1.6875 0 3.3164-0.63672 4.6328-1.8945 1.0508-1.0039 1.8594-2.3984 2.2305-4.0352h4.0156c0.83203 0.98047 2.0703 1.6094 3.457 1.6094 1.375-0.007812 2.6172-0.63281 3.4492-1.6172zm-21.082-7.7578c-0.066406-0.015625-0.13281-0.023437-0.20312-0.027343-0.44531-0.054688-0.89844-0.0625-1.3594-0.011719h-6.8594c0.44141-0.45312 0.92188-0.89062 1.4609-1.2852 1.8594-1.3594 4.2461-1.8359 6.7227-1.3555 2.668 0.52344 5.0625 2.1367 6.4062 4.3086 2.0977 3.4141 1.3867 6.5156-0.24609 8.0781-0.83984 0.80078-1.8477 1.168-2.9141 1.0898 1.082-1.1172 1.7773-2.6055 1.8906-4.2148 0.13672-2.0391-0.51172-3.8438-1.8242-5.0859-0.84766-0.80469-1.9219-1.3125-3.0742-1.4961zm13.094 4.8672h-2.7812c-0.066406-0.65625-0.19922-1.3281-0.41406-2.0156h3.1953v1.9805 0.035157zm-2.6094-10.934c1.0195 1.6914 0.83203 3.3398-0.60156 5.2539-0.17578 0.23047-0.26562 0.5-0.28125 0.76953h-1.0781c-1.8008-2.8125-4.7773-4.8086-8.2109-5.4805-3.2773-0.64453-6.4688 0.019531-8.9922 1.8594-0.86328 0.63672-1.6289 1.3438-2.3008 2.1055-0.96875-1.6133-0.99609-3.0469-0.10547-4.5078zm15.664 31.625c-8.6992 3.3477-20.055 2.1797-28.254-2.9023-5.1797-3.207-8.9141-9.4102-9.1445-14.898h3.5625c0.089844 1.5312 0.65625 3.0391 1.6914 4.4453 2.625 3.5703 8.1797 6.3711 14.152 7.1367 0.83984 0.10547 1.6602 0.15625 2.4727 0.15625 8.3164 0 15.004-5.4492 18.441-12.305 0.12891-0.16406 0.22266-0.35547 0.26953-0.56641 0.98828-2.1094 1.6797-4.3359 2.0156-6.5703 0.42969-2.8086-0.10547-5.2539-1.5039-6.8867-0.83203-0.97266-2.4023-2.1289-5.1328-2.1289h-5.207c-0.10156-0.58594-0.26562-1.1211-0.5-1.6055-0.60156-1.25-1.6055-2.1172-2.9805-2.582-0.75781-0.25391-1.5781 0.14844-1.8359 0.90625-0.25391 0.75781 0.14844 1.5781 0.90625 1.8359 0.63281 0.21484 1.0469 0.55859 1.3047 1.0977 0.18359 0.375 0.32422 0.92578 0.33594 1.7188 0 0.027343-0.007812 0.054687-0.007812 0.082031 0 0.027343 0.007812 0.058593 0.007812 0.085937-0.007812 1.2148-0.31641 2.9727-1.2305 5.5117-0.16016 0.44531-0.09375 0.9375 0.17969 1.3242 0.26953 0.38672 0.71094 0.61328 1.1836 0.61328h0.75c0.90234 0 1.6406 0.73438 1.6406 1.6406v3.1719c0 0.90234-0.73438 1.6406-1.6406 1.6406-0.90234 0-1.6406-0.73438-1.6406-1.6406v-3.4297c0-0.80078-0.64844-1.4453-1.4453-1.4453l-1.6953-0.007813c1.6875-2.8164 1.5664-5.6562-0.38281-8.2734-0.003906-0.003906-0.003906-0.007813-0.007812-0.011719-0.015625-0.019531-0.027344-0.039062-0.042969-0.058594-0.019531-0.023437-0.042969-0.042968-0.0625-0.066406-0.035156-0.039062-0.066406-0.078125-0.10547-0.10938-0.035156-0.03125-0.070312-0.0625-0.10938-0.089843-0.035156-0.027344-0.074218-0.054688-0.11328-0.078126-0.039063-0.023437-0.082031-0.046874-0.125-0.066406-0.039063-0.019531-0.082031-0.039062-0.125-0.058594-0.046875-0.015624-0.089844-0.03125-0.13672-0.042968-0.042968-0.011719-0.085937-0.023438-0.12891-0.03125-0.054688-0.007813-0.10547-0.011719-0.16016-0.015625-0.027344-0.003907-0.058594-0.007813-0.085938-0.007813l-28.996-0.003906c-1.207 0-1.9648-0.19922-2.5039-0.73047h9.0234c0.09375 0.003907 0.18359 0.003907 0.27734 0.003907 5.5352 0 6.3711-2.1406 6.4727-3.0703 0.085937-0.79297-0.48828-1.5078-1.2812-1.5938-0.73438-0.085937-1.4023 0.40625-1.5664 1.1094-0.27344 0.21875-1.375 0.67969-3.8867 0.66016h-14.551c-0.085938 0-0.17188-0.011718-0.28906-0.15234-0.070313-0.082031-0.09375-0.16797-0.070313-0.27734 0.82422-4.0625 2.2305-7.0977 4.3398-9.3789 1.0508 2.6875 3.6602 4.6016 6.7148 4.6016 3.9883 0 7.2344-3.2344 7.2344-7.2148 0-1.5273-0.48047-2.9414-1.2891-4.1133 1.5273-0.80859 2.9141-1.8555 3.8594-3.4414 1.0625 1.8008 1.2266 4.0234 0.5 6.7305-0.023438 0.09375-0.039063 0.1875-0.046876 0.28516-0.39453 6.3398 1.4922 11.32 5.6094 14.805 0.27344 0.23047 0.60547 0.34375 0.93359 0.34375 0.41016 0 0.82031-0.17578 1.1055-0.51172 0.51562-0.60938 0.44141-1.5234-0.16797-2.0391-3.3984-2.8789-4.9023-6.8945-4.6016-12.273 0.50781-1.9531 0.62891-3.7539 0.37891-5.3867 6.918-4.2383 15.289-5.6406 23.227-3.8867 1.3477 2.582 3.4922 5.1758 6.4336 7.7695 4.0195 3.2305 7.1484 5.1016 9.5703 5.707 0.50391 0.16406 1.0312 0.25 1.5703 0.25 0.53906 0 1.0664-0.085937 1.5703-0.25 0.11328-0.027343 0.24219-0.074218 0.35938-0.10937 5.0547 7.7227 6.4492 17.602 3.6953 26.672-2.8438 9.3672-9.4961 16.477-18.734 20.008zm-15.973-53.988c0 0.80078-0.64844 1.4453-1.4453 1.4453h-2.6992c-0.80078 0-1.4453-0.64844-1.4453-1.4453s0.64844-1.4453 1.4453-1.4453h2.6992c0.79688 0 1.4453 0.64844 1.4453 1.4453zm1.2227-3.5586c0-0.80078 0.64844-1.4453 1.4453-1.4453h2.6992c0.80078 0 1.4453 0.64844 1.4453 1.4453 0 0.80078-0.64844 1.4453-1.4453 1.4453h-2.6992c-0.79688 0-1.4453-0.64453-1.4453-1.4453zm5.7852 9.6445c0 0.80078-0.64844 1.4453-1.4453 1.4453h-2.6797c-0.79688 0-1.4453-0.64844-1.4453-1.4453 0-0.80078 0.64844-1.4453 1.4453-1.4453h2.6797c0.80078 0 1.4453 0.64844 1.4453 1.4453zm26.234 8.4453c0 0.80078-0.64844 1.4453-1.4453 1.4453h-2.6797c-0.80078 0-1.4453-0.64453-1.4453-1.4453 0-0.80078 0.64844-1.4453 1.4453-1.4453h2.6797c0.79688 0 1.4453 0.64453 1.4453 1.4453zm-15.582-11.34c0 0.80078-0.64844 1.4453-1.4453 1.4453h-2.6992c-0.80078 0-1.4453-0.64844-1.4453-1.4453s0.64844-1.4453 1.4453-1.4453h2.6992c0.79688 0 1.4453 0.64844 1.4453 1.4453zm5.2305 7.0742c0 0.80078-0.64844 1.4453-1.4453 1.4453h-2.6797c-0.79688 0-1.4453-0.64844-1.4453-1.4453 0-0.80078 0.64844-1.4453 1.4453-1.4453h2.6797c0.79687 0 1.4453 0.64453 1.4453 1.4453zm11.895-24.883c0-0.80078 0.64844-1.4453 1.4492-1.4453h1.8516v-1.8555c0-0.80078 0.64844-1.4453 1.4453-1.4453 0.80078 0 1.4453 0.64844 1.4453 1.4453v1.8555h1.8555c0.80078 0 1.4453 0.64844 1.4453 1.4453 0 0.80078-0.64844 1.4453-1.4453 1.4453h-1.8555v1.8555c0 0.80078-0.64844 1.4453-1.4453 1.4453s-1.4453-0.64453-1.4453-1.4453v-1.8555h-1.8516c-0.80078 0-1.4492-0.64453-1.4492-1.4453zm-60.105 19.609c0-0.80078 0.63672-1.4453 1.4375-1.4453h0.019532c0.80078 0 1.4453 0.64844 1.4453 1.4453 0 0.80078-0.64844 1.4453-1.4453 1.4453-0.80078 0-1.457-0.64453-1.457-1.4453z" fill="#ffffff"></path></svg>