<svg xmlns="http://www.w3.org/2000/svg" xmlns:xlink="http://www.w3.org/1999/xlink" version="1.1" x="0px" y="0px" style="enable-background:new 0 0 491.5 491.5;" xml:space="preserve" viewBox="76.7 61.46 338.1 368.49"><style type="text/css">	.st0{fill-rule:evenodd;clip-rule:evenodd;}</style><g><path d="M348.1,167.9l-3.4-17c-6.4,10.8-13.4,21.3-21.1,31.6c-12,15.9-25.7,31.2-42.1,45.8c-15,17.3-55.1,15.9-95.2,14.4   c-19-0.7-38-1.4-53.8,0l-3.6-0.6c-7.5-3.1-12.6-8.7-16-16.1c-0.2-0.4-0.4-0.9-0.6-1.3c0,0.1,0,0.2,0,0.3c0.3,6.7,3.6,14.4,9.6,22.7   l1.3,3.2l10.3,62.7l-0.8,4.9l-40.4,73.9c0.7,5.8,2,9.6,4,10.9c1.5,1,4.3,0.5,8.8-1.9l24-42.6l14.3,2.4l6.8,38.4   c1.5,2,3.1,3.4,4.7,4.2c1.4,0.7,2.8,0.9,4,0.6c1.3-0.3,2.5-1,3.6-2.2c1.3-1.4,2.3-3.3,3-5.7l-9.8-57l-1.4-7.9l8-1   c6.6-0.8,13.3-3.3,20-7.2c7-4,14-9.4,20.9-15.9l3.9-3.6l4.7,2.3c9.8,4.8,19.7,8.5,29.6,10.8c9.9,2.3,19.8,3.4,29.7,2.9l9.5-0.5   l-1.6,9.4l-13.3,79.7c2.3,3.7,4.5,5.7,6.5,5.9c2.3,0.2,5.5-1.9,9.4-6.4l9.1-50.4l15.1-0.1l9.3,48.5c1.5,4.8,3.3,7.1,5.2,7.8   c0.8,0.3,1.6,0.3,2.6,0.1c1.2-0.3,2.5-0.9,3.6-1.7c2.2-1.6,3.8-3.7,4-5.3l-12.4-71.9l1.3-5.7c5-7.1,8-17.4,9.5-30.1   c1.5-13.4,1.3-29.4-0.3-47.3l1.7-5.5l20.1-24.8l4-4.9l5.6,3c13.8,7.5,23.3,9.2,29.2,5.9c5.3-2.9,8.5-10.3,10-21.5   c-1.4,0.4-3,1.1-4.8,1.9l-3.9,1.7l-3.5-2.4c-6.2-4.2-12.4-9-18.6-14.7c-6.2-5.6-12.4-12.1-18.6-19.7L348.1,167.9L348.1,167.9z    M355.7,127.8l7.1,35.4c5.2,6.3,10.5,11.8,15.8,16.6c4.5,4.1,9.1,7.8,13.6,11c3.8-1.4,7.3-2.2,10.4-2.1c7.4,0.2,12,3.7,12.2,12.5   l0,0.9c-1.7,18.7-7.5,31.5-18.3,37.5c-9.6,5.3-22.2,4.6-38.2-3L344,254c1.4,17.6,1.5,33.5-0.1,47.3c-1.6,13.7-4.9,25.4-10.4,34.4   l12,69.6l0.1,0.9c0.3,6.8-4,14.1-10.2,18.7c-2.8,2-6,3.6-9.4,4.3c-3.7,0.8-7.5,0.7-11.3-0.8c-6-2.3-11.4-7.9-14.4-18.2l-0.2-0.7   l-1.6-8.3l-2.1,11.8l-1.6,3.5c-8,9.7-15.9,14-23.6,13.4c-8-0.6-14.6-6.1-20.1-15.9l-0.9-5l12.2-73.5c-8.3-0.3-16.5-1.4-24.6-3.3   c-9.5-2.3-18.8-5.6-28.1-9.8c-6.6,5.7-13.2,10.6-19.9,14.5c-5.8,3.3-11.8,5.9-17.8,7.5l8.8,51.2l-0.1,2.9c-1.2,5.7-3.7,10.5-7,14.1   c-3.3,3.6-7.4,6-11.9,6.9c-4.5,0.9-9.3,0.4-13.9-1.9c-4.2-2.1-8.1-5.6-11.5-10.7l-1.2-2.9l-3.4-19l-14.5,25.8l-2.8,2.8   c-11.3,6.6-20.2,7-27,2.3c-6.3-4.3-9.7-12.8-10.8-24.4l0.9-4.4l40.3-73.6l-9.6-58.4c-7-10.2-11-20.1-11.4-29.6   c-0.4-10.6,3.6-20.2,12.7-28.7l11.2-10.5l1.6,15.3c0.7,7,2,13.1,4.2,17.9c1.6,3.4,3.7,6,6.5,7.7c15.9-1.2,34.7-0.5,53.5,0.2   c36.8,1.3,73.5,2.6,83.3-9.4l0.8-0.9c15.8-14.1,29-28.6,40.3-43.8c11.4-15.2,21.1-31.1,30.1-47.8L355.7,127.8L355.7,127.8z" fill="#ffffff"></path><polygon points="133.5,313.5 143.3,361.2 128.3,364.3 118.5,316.6 " fill="#ffffff"></polygon><circle class="st0" cx="346.9" cy="189.4" r="7.5" fill="#ffffff"></circle><path d="M341.3,245.2c3.3,2.7,8.1,2.2,10.8-1.1c2.7-3.3,2.2-8.1-1.1-10.8L141.3,63.2c-3.3-2.7-8.1-2.2-10.8,1.1   c-2.7,3.3-2.2,8.1,1.1,10.8L341.3,245.2z" fill="#ffffff"></path></g></svg>