<svg xmlns="http://www.w3.org/2000/svg" version="1.1" viewBox="-5.0 -10.0 110.0 135.0">
 <g>
  <path d="m27.461 62.969c-2.6953 5.293-1.4258 11.426 1.25 14.746 1.9922 2.4805 4.7266 3.4766 7.4805 2.7539 9.2969-2.4609 19.102-2.4609 28.398 0 0.58594 0.15625 1.1719 0.23438 1.7578 0.23438 2.1289 0 4.1406-1.0352 5.7227-2.9883 2.6758-3.3203 3.9648-9.4531 1.25-14.746-6.0352-11.797-14.18-18.281-22.93-18.281s-16.914 6.4844-22.93 18.281zm22.93-15.645c7.7148 0 15.02 5.9766 20.566 16.836 2.168 4.2578 1.1328 9.2969-0.97656 11.875-0.76172 0.95703-2.4023 2.4609-4.7461 1.8555-4.8633-1.2891-9.8633-1.9336-14.883-1.9336-5.0195 0-10.02 0.64453-14.883 1.9336-2.3242 0.625-3.9648-0.89844-4.7461-1.8555-2.0898-2.5781-3.1445-7.6367-0.97656-11.875 5.625-10.84 12.93-16.836 20.645-16.836z"/>
  <path d="m69.98 50.781c0.82031 0.46875 1.7188 0.70312 2.6758 0.70312 0.91797 0 1.8945-0.23438 2.8711-0.66406 1.8164-0.83984 3.4375-2.3633 4.5898-4.3359 2.4609-4.2578 1.875-9.0625-1.3477-10.918-1.6016-0.91797-3.5742-0.9375-5.5469-0.039062-1.8164 0.83984-3.4375 2.3633-4.5703 4.3359-1.1328 1.9531-1.6602 4.1406-1.4648 6.1328 0.17578 2.1484 1.1719 3.8672 2.793 4.7852zm0.9375-9.5898c0.85938-1.4844 2.0703-2.6562 3.3984-3.2422 0.60547-0.27344 1.2109-0.42969 1.7578-0.42969 0.50781 0 0.95703 0.11719 1.3672 0.35156 1.875 1.0742 2.0312 4.4336 0.37109 7.3047-0.85938 1.4844-2.0703 2.6562-3.3984 3.2422-1.1719 0.52734-2.2852 0.54688-3.125 0.078125-0.83984-0.48828-1.3867-1.4648-1.5039-2.7344-0.11719-1.4648 0.27344-3.0859 1.1328-4.5703z"/>
  <path d="m57.891 41.699c0.25391 0.039062 0.50781 0.058593 0.76172 0.058593 3.3984 0 6.6211-3.8672 7.5781-9.2773 0.46875-2.6367 0.3125-5.2539-0.46875-7.3438-0.83984-2.3438-2.3633-3.8086-4.2383-4.1406-3.6523-0.64453-7.3242 3.3984-8.3398 9.1992-0.46875 2.6367-0.3125 5.2539 0.46875 7.3438 0.83984 2.3633 2.3438 3.8477 4.2383 4.1602zm-2.0898-11.035c0.76172-4.3164 3.1445-7.0703 4.9805-7.0703 0.097656 0 0.19531 0.019531 0.3125 0.019531 0.89844 0.15625 1.6992 1.0547 2.207 2.4414 0.60547 1.6406 0.72266 3.8281 0.35156 5.9961-0.80078 4.5508-3.418 7.4023-5.293 7.0508-0.89844-0.15625-1.6992-1.0547-2.207-2.4414-0.60547-1.6602-0.74219-3.8281-0.35156-5.9961z"/>
  <path d="m25.254 50.82c0.97656 0.44922 1.9531 0.66406 2.8711 0.66406 0.95703 0 1.875-0.23438 2.6758-0.70312 1.6016-0.91797 2.6172-2.6172 2.8125-4.7852 0.17578-1.9922-0.33203-4.1797-1.4648-6.1328-1.1328-1.9531-2.7539-3.4961-4.5898-4.3359-1.9727-0.89844-3.9453-0.87891-5.5469 0.039062-3.2227 1.8555-3.8086 6.6602-1.3477 10.918 1.1523 1.9727 2.7734 3.4961 4.5898 4.3359zm-1.9141-12.949c0.83984-0.48828 1.9531-0.46875 3.125 0.078125 1.3281 0.60547 2.5391 1.7578 3.3984 3.2422s1.25 3.1055 1.1328 4.5508c-0.11719 1.2891-0.64453 2.2461-1.5039 2.7344-0.83984 0.48828-1.9531 0.46875-3.125-0.078124-1.3281-0.60547-2.5391-1.7578-3.3984-3.2422-1.6406-2.8711-1.4844-6.2109 0.37109-7.2852z"/>
  <path d="m37.5 39.258c1.3867 1.6406 2.9883 2.5195 4.6094 2.5195 0.27344 0 0.52734-0.019532 0.78125-0.058594 1.875-0.33203 3.3984-1.7969 4.2383-4.1406 0.76172-2.0898 0.91797-4.707 0.46875-7.3438-0.46875-2.6367-1.5039-5.0391-2.9492-6.7383-1.6016-1.9141-3.5156-2.7734-5.4102-2.4414-1.875 0.33203-3.3984 1.7969-4.2383 4.1406-0.76172 2.0898-0.91797 4.707-0.46875 7.3438 0.48828 2.6172 1.543 5 2.9688 6.7188zm0-13.203c0.50781-1.4062 1.3086-2.2852 2.207-2.4414 0.097657-0.019531 0.19531-0.019531 0.3125-0.019531 0.82031 0 1.7578 0.54688 2.6172 1.582 1.1328 1.3477 1.9922 3.3594 2.3633 5.5078 0.39062 2.168 0.25391 4.3359-0.35156 5.9961-0.50781 1.4062-1.3086 2.2852-2.207 2.4414-0.87891 0.15625-1.9531-0.41016-2.9102-1.543-1.1328-1.3477-1.9922-3.3594-2.3633-5.5078-0.37109-2.1484-0.27344-4.375 0.33203-6.0156z"/>
 </g>
<text x="0.0" y="117.5" font-size="5.0" font-weight="bold" font-family="Arbeit Regular, Helvetica, Arial-Unicode, Arial, Sans-serif" fill="#000000">Created by Flip Song</text><text x="0.0" y="122.5" font-size="5.0" font-weight="bold" font-family="Arbeit Regular, Helvetica, Arial-Unicode, Arial, Sans-serif" fill="#000000">from Noun Project</text></svg>