<svg xmlns="http://www.w3.org/2000/svg" data-name="Layer 1" viewBox="0 0 64 80" x="0px" y="0px"><title>1</title><path d="M32,43.45c-1.18,0-2.07-1.12-2.93-2.2-.62-.78-1.25-1.57-1.84-1.73a5,5,0,0,0-2.55.58c-1.26.5-2.56,1-3.54.44s-1.21-2-1.42-3.33A4.94,4.94,0,0,0,19,34.75,5,5,0,0,0,16.51,34c-1.35-.2-2.75-.41-3.33-1.41s0-2.29.44-3.55a5,5,0,0,0,.58-2.55c-.15-.58-.95-1.22-1.72-1.83-1.08-.86-2.2-1.75-2.2-2.94s1.12-2.07,2.2-2.93c.77-.61,1.57-1.25,1.72-1.84a5,5,0,0,0-.58-2.54c-.49-1.26-1-2.57-.43-3.55s2-1.21,3.32-1.41A5,5,0,0,0,19,8.7a5,5,0,0,0,.74-2.46c.21-1.36.41-2.75,1.42-3.33s2.28-.06,3.54.43a5,5,0,0,0,2.55.59c.59-.16,1.22-1,1.84-1.73C29.93,1.12,30.82,0,32,0s2.07,1.12,2.93,2.2c.62.77,1.25,1.57,1.84,1.73a5.15,5.15,0,0,0,2.55-.59c1.26-.49,2.56-1,3.54-.43s1.21,2,1.42,3.32A5,5,0,0,0,45,8.7a5,5,0,0,0,2.47.75c1.35.2,2.75.41,3.32,1.41s.06,2.29-.43,3.55A5.11,5.11,0,0,0,49.79,17c.16.59,1,1.23,1.73,1.84,1.08.86,2.2,1.75,2.2,2.93s-1.12,2.08-2.2,2.94c-.77.61-1.57,1.25-1.73,1.83A5.13,5.13,0,0,0,50.38,29c.49,1.26,1,2.56.43,3.55s-2,1.21-3.32,1.41a5,5,0,0,0-2.47.75,4.94,4.94,0,0,0-.74,2.46c-.21,1.35-.42,2.75-1.42,3.33s-2.28.06-3.54-.44a5,5,0,0,0-2.55-.58c-.59.16-1.22.95-1.84,1.73C34.07,42.33,33.18,43.45,32,43.45Zm-5.11-5a2.27,2.27,0,0,1,.59.08,5.41,5.41,0,0,1,2.36,2.06c.71.9,1.45,1.83,2.16,1.83s1.45-.93,2.16-1.83a5.45,5.45,0,0,1,2.35-2.06,5.56,5.56,0,0,1,3.17.62c1,.41,2.11.83,2.69.5s.76-1.5.93-2.62a5.45,5.45,0,0,1,1-3,5.46,5.46,0,0,1,3-1c1.12-.17,2.28-.34,2.62-.93s-.09-1.66-.5-2.7a5.6,5.6,0,0,1-.62-3.16,5.36,5.36,0,0,1,2.07-2.35c.9-.72,1.83-1.46,1.83-2.17s-.93-1.44-1.83-2.16a5.36,5.36,0,0,1-2.07-2.35,5.6,5.6,0,0,1,.62-3.16c.41-1.05.83-2.12.5-2.7s-1.5-.76-2.62-.93a5.46,5.46,0,0,1-3-1,5.45,5.45,0,0,1-1-3c-.17-1.12-.34-2.28-.93-2.62s-1.65.09-2.69.5a5.53,5.53,0,0,1-3.17.62,5.41,5.41,0,0,1-2.35-2.07C33.45,1.91,32.71,1,32,1s-1.45.93-2.16,1.83a5.38,5.38,0,0,1-2.36,2.07,5.53,5.53,0,0,1-3.16-.62c-1-.41-2.12-.83-2.69-.5s-.77,1.5-.93,2.62a5.45,5.45,0,0,1-1,3,5.46,5.46,0,0,1-3,1c-1.12.17-2.28.34-2.62.93s.09,1.65.5,2.7a5.6,5.6,0,0,1,.62,3.16,5.42,5.42,0,0,1-2.07,2.35c-.9.72-1.83,1.45-1.83,2.16s.93,1.45,1.83,2.17a5.42,5.42,0,0,1,2.07,2.35,5.6,5.6,0,0,1-.62,3.16c-.41,1-.84,2.12-.5,2.7s1.5.76,2.62.93a5.46,5.46,0,0,1,3,1,5.45,5.45,0,0,1,1,3c.16,1.12.34,2.28.93,2.62s1.65-.09,2.69-.5A7.68,7.68,0,0,1,26.89,38.49Z"/><path d="M32,35A13.28,13.28,0,1,1,45.27,21.72,13.3,13.3,0,0,1,32,35ZM32,9.43A12.29,12.29,0,1,0,44.29,21.72,12.31,12.31,0,0,0,32,9.43Z"/><path d="M25.72,64a.48.48,0,0,1-.45-.31l-2.48-6.28L17,60.78a.5.5,0,0,1-.56,0,.52.52,0,0,1-.16-.55l7-20.42a.48.48,0,0,1,.62-.3.48.48,0,0,1,.31.62l-6.6,19.18,5.17-3a.53.53,0,0,1,.41,0,.49.49,0,0,1,.29.29L25.66,62l5.87-19.21a.49.49,0,0,1,.61-.33.5.5,0,0,1,.33.62L26.2,63.65a.52.52,0,0,1-.46.35Z"/><path d="M38.27,64h0a.51.51,0,0,1-.46-.35L31.53,43.1a.5.5,0,0,1,.33-.62.49.49,0,0,1,.61.33L38.33,62l2.18-5.5a.49.49,0,0,1,.29-.29.53.53,0,0,1,.41,0l5.17,3L39.91,40.14a.5.5,0,0,1,.31-.63.48.48,0,0,1,.62.31l6.9,20.38a.51.51,0,0,1-.16.54.5.5,0,0,1-.56,0l-5.81-3.37-2.48,6.28A.48.48,0,0,1,38.27,64Z"/><text x="0" y="79" fill="#000000" font-size="5px" font-weight="bold" font-family="'Helvetica Neue', Helvetica, Arial-Unicode, Arial, Sans-serif">Created by Rank Sol</text><text x="0" y="84" fill="#000000" font-size="5px" font-weight="bold" font-family="'Helvetica Neue', Helvetica, Arial-Unicode, Arial, Sans-serif">from the Noun Project</text></svg>