<svg xmlns="http://www.w3.org/2000/svg" version="1.1" viewBox="1.02 6.88 97.95 86.25"> <path d="m70.328 63.398c2.0234 1.5195 3.6836 3.5352 4.8203 5.8633 1.0938 2.2422 1.7109 4.7852 1.7109 7.4766 0 4.4922-1.7227 8.5703-4.5078 11.531-2.8203 2.9961-6.7188 4.8555-11.035 4.8555h-22.637c-4.3125 0-8.2148-1.8555-11.035-4.8555-2.7852-2.9609-4.5078-7.043-4.5078-11.531 0-2.6875 0.61719-5.2305 1.7109-7.4766 1.1328-2.3281 2.7969-4.3398 4.8203-5.8633 1.1523-0.86719 2.0898-1.8242 2.8281-2.9023l0.003906-0.007813-0.003906-0.003906c0.73438-1.0664 1.293-2.2852 1.6875-3.6797 1.0156-3.5586 3.0977-6.7422 5.9531-9.0039 2.6992-2.1406 6.0703-3.4414 9.8594-3.4414 3.7891 0 7.1562 1.3008 9.8594 3.4414 2.8516 2.2578 4.9336 5.4453 5.9531 9.0039 0.39453 1.3906 0.95312 2.6055 1.6875 3.6797l0.078125 0.12109c0.72656 1.0273 1.6367 1.9531 2.75 2.7891zm-62.93-25.668c-1.9766 1.0117-2.2812 5.2422-1.3398 9.6836 0.36719 1.7383 0.9375 3.4727 1.6953 5.0508 0.73828 1.543 1.6484 2.9414 2.7109 4.0508 2.1797 2.2773 5.125 3.2812 8.6367 1.4844 3.7617-1.9219 4.9219-4.8672 4.4883-7.8711-0.21484-1.4805-0.77734-2.9922-1.5898-4.4336-0.83984-1.4922-1.957-2.918-3.2344-4.1719-3.4922-3.4219-8.082-5.4688-11.363-3.793zm-5.8281 10.637c-1.3398-6.3125-0.25391-12.664 3.7461-14.711 5.2383-2.6797 11.887-0.078125 16.656 4.5977 1.5625 1.5312 2.9414 3.3047 4.0039 5.1953 1.0938 1.9375 1.8516 3.9883 2.1445 6.0312 0.70312 4.8711-1.0859 9.5938-6.9492 12.59-5.7148 2.9219-10.492 1.3047-14.023-2.3828-1.4062-1.4727-2.5938-3.2812-3.5352-5.2539-0.92578-1.9336-1.6172-4.0195-2.0508-6.0742zm93.113-14.711c4 2.043 5.082 8.3984 3.7461 14.711-0.43359 2.0547-1.1289 4.1406-2.0508 6.0742-0.94141 1.9727-2.1289 3.7812-3.5352 5.2539-3.5312 3.6875-8.3086 5.3086-14.023 2.3828-5.8633-2.9961-7.6484-7.7188-6.9492-12.59 0.29297-2.0391 1.0547-4.0938 2.1445-6.0312 1.0664-1.8906 2.4453-3.6641 4.0039-5.1953 4.7695-4.6758 11.418-7.2773 16.656-4.5977zm-0.73828 13.758c0.9375-4.4414 0.63672-8.6719-1.3398-9.6836-3.2812-1.6758-7.8711 0.36719-11.363 3.793-1.2812 1.2578-2.3945 2.6836-3.2344 4.1719-0.8125 1.4414-1.3789 2.9531-1.5898 4.4336-0.43359 3.0078 0.73047 5.9492 4.4883 7.8711 3.5117 1.7969 6.457 0.79688 8.6367-1.4844 1.0625-1.1094 1.9727-2.5117 2.7109-4.0508 0.75391-1.5781 1.3242-3.3125 1.6953-5.0508zm-60.48-35.945c-2.043 0-3.9766 3.4414-5.0234 7.707-0.43359 1.7734-0.69141 3.6602-0.71484 5.5117-0.023437 1.8242 0.16797 3.6211 0.62891 5.25 0.98438 3.4961 3.3008 6.1484 7.4844 6.1484 4 0 6.2305-1.9727 7.1484-4.7344 0.47656-1.4336 0.64453-3.0977 0.55469-4.8438-0.09375-1.8086-0.46875-3.6836-1.0664-5.4805-1.7148-5.1328-5.168-9.5547-9.0195-9.5547zm-9.4727 6.6133c1.5195-6.2031 5.0781-11.207 9.4727-11.207 6.0273 0 11.082 5.8789 13.359 12.695 0.73047 2.1875 1.1836 4.4805 1.3008 6.7031 0.11719 2.2812-0.12109 4.5117-0.78906 6.5156-1.5312 4.6016-5.1328 7.8906-11.492 7.8906-6.7031 0-10.379-4.0938-11.902-9.5039-0.57422-2.043-0.82031-4.2812-0.78906-6.5391 0.03125-2.2305 0.32812-4.4727 0.83984-6.5547zm42.547-11.207c4.3906 0 7.9492 5.0039 9.4727 11.207 0.51172 2.082 0.80859 4.3242 0.83984 6.5547 0.03125 2.2578-0.21484 4.4961-0.78516 6.5391-1.5195 5.4102-5.1914 9.5039-11.902 9.5039-6.3594 0-9.9609-3.2891-11.492-7.8906-0.66406-2-0.91016-4.2344-0.78906-6.5156 0.11328-2.2227 0.57031-4.5156 1.3008-6.7031 2.2773-6.8203 7.3281-12.695 13.359-12.695zm5.0234 12.305c-1.0469-4.2656-2.9805-7.707-5.0234-7.707-3.8516 0-7.3047 4.4219-9.0195 9.5547-0.60156 1.7969-0.97266 3.6719-1.0664 5.4805-0.089844 1.75 0.078125 3.4102 0.55469 4.8438 0.91797 2.7617 3.1484 4.7344 7.1484 4.7344 4.1836 0 6.5-2.6484 7.4844-6.1484 0.45703-1.625 0.65234-3.4219 0.62891-5.25-0.023437-1.8555-0.27734-3.7422-0.71094-5.5117zm-0.53516 52.094c-0.82422-1.6914-2.0117-3.1367-3.4375-4.2109-1.4922-1.125-2.7422-2.3945-3.7578-3.8398l-0.09375-0.12891c-1.0352-1.5078-1.8047-3.1719-2.3359-5.0234-0.76172-2.6602-2.293-5.0234-4.3711-6.6719-1.9102-1.5156-4.3125-2.4375-7.0273-2.4375-2.7109 0-5.1133 0.92187-7.0234 2.4375-2.082 1.6484-3.6133 4.0117-4.3711 6.6719-0.52734 1.8516-1.3008 3.5156-2.3359 5.0234l-0.003907-0.003906c-1.0312 1.5-2.3086 2.8125-3.8477 3.9688-1.4297 1.0742-2.6133 2.5195-3.4375 4.2109-0.79688 1.6328-1.2461 3.4883-1.2461 5.4648 0 3.2891 1.2422 6.2539 3.2539 8.3906 1.9727 2.1016 4.6953 3.3984 7.6953 3.3984h22.637c3 0 5.7227-1.3008 7.6953-3.3984 2.0117-2.1367 3.2539-5.1016 3.2539-8.3906 0-1.9766-0.44922-3.8359-1.2461-5.4648z" fill="#ffffff"></path></svg>