<svg xmlns="http://www.w3.org/2000/svg" xmlns:xlink="http://www.w3.org/1999/xlink" version="1.1" x="0px" y="0px" viewBox="0 0 100 125" style="enable-background:new 0 0 100 100;" xml:space="preserve" fill="#cdf1ee"><ellipse transform="matrix(0.2079102 -0.9781479 0.9781479 0.2079102 18.5209465 48.8326454)" cx="39.412075" cy="12.9806089" rx="8.0116568" ry="5.8790569" fill="#cdf1ee"/><ellipse transform="matrix(0.9781479 -0.2079102 0.2079102 0.9781479 -2.1990805 4.9419394)" cx="22.4103394" cy="12.9324732" rx="5.8790569" ry="8.0116549" fill="#cdf1ee"/><ellipse transform="matrix(0.8480432 -0.5299271 0.5299271 0.8480432 -11.641098 9.5887785)" cx="10.8991833" cy="25.0927029" rx="5.3026681" ry="7.2047119" fill="#cdf1ee"/><ellipse transform="matrix(0.5298821 -0.8480713 0.8480713 0.5298821 2.6962895 55.0022049)" cx="50.9588814" cy="25.069109" rx="7.2053227" ry="5.3031182" fill="#cdf1ee"/><path d="M34.0030937,25.5027313c-1.0375328-0.5187664-2.0750637-1.0375309-3.1125965-1.0375309  c-1.0951729,0-2.0750618,0.5187664-3.1125946,1.0375309c-6.4557495,3.4007988-10.8364372,8.5308113-12.3350935,15.7935333  c-0.4611244,2.3056259-0.5187654,4.6112518,0.2882032,6.8592377C16.1921368,49.3659554,17.0567455,50,18.3824806,50  c0.6340485,0,1.268095-0.0576401,1.8445015-0.2305641c1.3257351-0.3458405,2.6514683-0.8069687,3.9772053-1.152813  c2.2479858-0.5187645,4.4383278-1.4410133,6.7439537-1.4410133c2.1903439,0,4.4959698,0.8646088,6.7439556,1.4410133  c1.3257332,0.2882042,2.6514702,0.8069725,3.9771996,1.152813C42.2457047,49.9423599,42.8797493,50,43.5137978,50  c1.2680893,0,2.1903458-0.5764046,2.6514664-1.8444977c0.8069687-2.2479858,0.7493324-4.6112518,0.2882042-6.8592377  C44.897171,34.0335426,40.5164871,28.9035301,34.0030937,25.5027313z" fill="#cdf1ee"/><ellipse transform="matrix(0.2079102 -0.9781479 0.9781479 0.2079102 7.1611781 119.8045197)" cx="77.5536041" cy="55.4806099" rx="8.0116568" ry="5.8790569" fill="#cdf1ee"/><ellipse transform="matrix(0.9781479 -0.2079102 0.2079102 0.9781479 -10.2017918 13.8006659)" cx="60.5518723" cy="55.4324722" rx="5.8790569" ry="8.0116549" fill="#cdf1ee"/><ellipse transform="matrix(0.8480432 -0.5299271 0.5299271 0.8480432 -28.3671341 36.2591705)" cx="49.0407143" cy="67.5927048" rx="5.3026681" ry="7.2047119" fill="#cdf1ee"/><ellipse transform="matrix(0.5298821 -0.8480713 0.8480713 0.5298821 -15.4157248 107.3289566)" cx="89.1004105" cy="67.5691071" rx="7.2053227" ry="5.3031182" fill="#cdf1ee"/><path d="M72.1446228,68.0027313c-1.037529-0.5187683-2.075058-1.037529-3.1125946-1.037529  c-1.0951691,0-2.075058,0.5187607-3.1125946,1.037529c-6.4557495,3.400795-10.8364372,8.5308151-12.3350945,15.7935333  c-0.4611244,2.3056259-0.5187645,4.6112518,0.2882042,6.8592377C54.3336678,91.8659515,55.1982765,92.5,56.5240135,92.5  c0.6340485,0,1.2680931-0.0576401,1.8445015-0.2305603c1.3257332-0.3458481,2.6514664-0.8069763,3.9772034-1.1528168  c2.2479858-0.5187683,4.4383316-1.4410172,6.7439575-1.4410172c2.1903381,0,4.4959641,0.8646088,6.7439499,1.4410172  c1.325737,0.2882004,2.651474,0.8069687,3.9772034,1.1528168C80.3872375,92.4423599,81.0212784,92.5,81.6553268,92.5  c1.2680969,0,2.1903458-0.5764084,2.6514664-1.8444977c0.8069763-2.2479858,0.7493362-4.6112518,0.288208-6.8592377  C83.0387039,76.5335464,78.65802,71.4035263,72.1446228,68.0027313z" fill="#cdf1ee"/></svg>