<svg xmlns="http://www.w3.org/2000/svg" xmlns:xlink="http://www.w3.org/1999/xlink" version="1.1" x="0px" y="0px" viewBox="0 0 100 125" enable-background="new 0 0 100 100" xml:space="preserve"><path d="M57.797,24.831c0.958,0.544,1.462,0.871,1.893,1.214c0.615,0.492,1.173,1.14,1.734,2.034  c0.171,0.271,0.323,0.521,0.662,1.12c0.394,0.695,0.546,0.963,0.757,1.277c0.145,0.214,0.33,0.45,0.458,0.599  c0.034,0.04,0.07,0.084,0.078,0.094c0.009,0.01,0.111,0.128,0.237,0.252c0.245,0.243,0.307,0.285,0.504,0.426  c0.595,0.422,1.336,0.68,2.146,0.741c0.121,0.01,0.461,0.01,0.584,0c0.744-0.056,1.438-0.304,2.049-0.741  c0.214-0.152,0.352-0.272,0.553-0.473c0.149-0.149,0.232-0.252,0.347-0.394c0.665-0.829,1.102-1.887,1.277-3.123  c0.084-0.592,0.104-1.202,0.063-1.876c-0.04-0.666-0.023-1.174,0.047-1.814c0.066-0.599,0.155-1.091,0.379-2.113  c0.188-0.857,0.26-1.177,0.315-1.53c0.153-0.984,0.123-1.743-0.095-2.444c-0.215-0.689-0.639-1.364-1.246-1.972  c-0.141-0.141-0.234-0.215-0.362-0.315c-0.498-0.388-1.088-0.627-1.767-0.726c-0.277-0.041-0.58-0.052-0.915-0.047  c-0.334,0.005-0.688,0.029-1.088,0.079c-0.419,0.053-0.762,0.107-1.688,0.268c-1.197,0.208-1.795,0.288-2.46,0.332  c-0.481,0.032-0.911,0.034-1.403,0c-1.084-0.074-2.097,0.041-3.028,0.347c-0.802,0.264-1.484,0.643-2.065,1.151  c-0.105,0.092-0.353,0.339-0.441,0.441c-0.571,0.655-0.926,1.387-1.041,2.208c-0.093,0.664-0.023,1.391,0.189,1.956  c0.312,0.83,0.902,1.488,1.924,2.176C56.71,24.193,57.122,24.448,57.797,24.831z" fill="#9ae2dc"/><path d="M44.802,75.027c-0.515-0.419-1.182-0.668-1.955-0.725c-0.138-0.011-0.463-0.01-0.615,0  c-1.277,0.079-2.581,0.644-3.612,1.562c-0.136,0.12-0.48,0.46-0.583,0.583c-0.554,0.667-0.901,1.367-1.041,2.081  c-0.182,0.934,0.041,1.795,0.615,2.445c0.374,0.423,0.918,0.742,1.545,0.898c1.572,0.391,3.503-0.188,4.936-1.467  c0.121-0.107,0.448-0.431,0.536-0.536c0.559-0.665,0.911-1.365,1.057-2.065c0.186-0.896,0.027-1.692-0.473-2.35  C45.132,75.349,44.915,75.119,44.802,75.027z" fill="#9ae2dc"/><path d="M34.094,78.513c-0.141-0.141-0.234-0.215-0.363-0.315c-0.498-0.388-1.071-0.627-1.75-0.725  c-0.277-0.041-0.58-0.053-0.915-0.048c-0.334,0.007-0.705,0.029-1.104,0.079c-0.42,0.052-0.762,0.106-1.688,0.268  c-1.198,0.209-1.794,0.288-2.46,0.332c-0.482,0.029-0.911,0.033-1.404,0c-1.083-0.074-2.096,0.04-3.028,0.347  c-0.802,0.263-1.485,0.643-2.066,1.151c-0.105,0.092-0.352,0.339-0.441,0.441c-0.572,0.655-0.91,1.387-1.025,2.208  c-0.093,0.664-0.023,1.391,0.189,1.955c0.312,0.829,0.888,1.488,1.908,2.177c0.316,0.213,0.745,0.468,1.419,0.852  c0.958,0.544,1.462,0.87,1.892,1.214c0.616,0.492,1.157,1.141,1.719,2.034c0.17,0.271,0.324,0.521,0.662,1.12  c0.394,0.695,0.562,0.963,0.773,1.277c0.144,0.215,0.313,0.449,0.441,0.599c0.035,0.041,0.071,0.085,0.079,0.096  c0.008,0.01,0.111,0.127,0.236,0.252c0.246,0.243,0.307,0.285,0.505,0.426c0.595,0.422,1.335,0.68,2.145,0.741  c0.122,0.009,0.478,0.009,0.6,0c0.745-0.057,1.422-0.304,2.034-0.741c0.213-0.152,0.367-0.272,0.567-0.473  c0.15-0.15,0.233-0.252,0.347-0.395c0.665-0.829,1.102-1.888,1.277-3.123c0.084-0.592,0.104-1.201,0.063-1.876  c-0.04-0.667-0.039-1.175,0.032-1.813c0.066-0.6,0.154-1.092,0.378-2.114c0.188-0.856,0.26-1.176,0.315-1.529  c0.154-0.984,0.124-1.743-0.095-2.444C35.125,79.795,34.702,79.121,34.094,78.513z" fill="#9ae2dc"/><path d="M37.517,73.75c0.727-0.973,1.133-2.091,1.167-3.186c0.019-0.615-0.1-1.213-0.347-1.702  c-0.261-0.518-0.653-0.933-1.151-1.184c-0.294-0.148-0.607-0.231-0.962-0.268c-0.108-0.011-0.452-0.011-0.568,0V67.41  c-0.784,0.074-1.583,0.421-2.302,0.979c-0.211,0.164-0.275,0.212-0.536,0.474c-0.267,0.267-0.327,0.338-0.505,0.567  c-0.991,1.277-1.425,2.854-1.151,4.179c0.11,0.532,0.32,0.979,0.646,1.356c0.063,0.073,0.235,0.234,0.315,0.3  c0.269,0.22,0.58,0.377,0.915,0.473c0.107,0.031,0.3,0.081,0.41,0.095c0.995,0.123,2.13-0.269,3.091-1.057  C36.894,74.484,37.236,74.125,37.517,73.75z" fill="#9ae2dc"/><path d="M44.897,85.121c-0.093-0.14-0.156-0.229-0.284-0.363c-0.35-0.367-0.773-0.62-1.309-0.804  c-0.422-0.146-0.834-0.224-1.309-0.237c-0.141-0.006-0.284-0.008-0.426,0c-0.995,0.062-2.001,0.436-2.792,1.025  c-0.992,0.741-1.577,1.744-1.577,2.744c0,0.587,0.205,1.166,0.584,1.624c0.023,0.029,0.117,0.12,0.205,0.205  c0.169,0.166,0.245,0.22,0.41,0.331c0.583,0.396,1.339,0.617,2.129,0.631c0.409,0.008,0.749-0.016,1.136-0.095  c0.906-0.184,1.73-0.583,2.396-1.167c0.118-0.103,0.386-0.396,0.474-0.504c0.514-0.638,0.788-1.32,0.788-2.003  c0-0.297-0.034-0.53-0.126-0.805C45.123,85.483,45.024,85.313,44.897,85.121z" fill="#9ae2dc"/><path d="M66.723,40.933c-0.45-0.31-0.966-0.451-1.514-0.426c-0.329,0.015-0.67,0.083-1.01,0.221  c-0.262,0.106-0.583,0.284-0.836,0.474c-0.189,0.142-0.236,0.189-0.473,0.425c-0.241,0.241-0.286,0.297-0.441,0.504  c-0.747,0.995-1.142,2.27-1.041,3.438c0.066,0.771,0.336,1.437,0.772,1.955c0.075,0.088,0.284,0.29,0.379,0.363  c0.142,0.108,0.232,0.178,0.379,0.252c1.057,0.537,2.38,0.241,3.453-0.757c0.66-0.614,1.146-1.45,1.403-2.366  c0.365-1.301,0.187-2.628-0.473-3.501C67.15,41.289,66.94,41.083,66.723,40.933z" fill="#9ae2dc"/><path d="M83.786,48.045c-0.08-0.105-0.298-0.334-0.41-0.426c-0.515-0.419-1.182-0.652-1.955-0.709c-0.139-0.011-0.463-0.01-0.615,0  c-1.276,0.079-2.58,0.628-3.611,1.545c-0.136,0.121-0.48,0.476-0.583,0.599c-0.555,0.667-0.902,1.367-1.042,2.082  c-0.182,0.934,0.025,1.794,0.6,2.444c0.374,0.423,0.935,0.743,1.562,0.899c1.571,0.391,3.504-0.188,4.937-1.467  c0.12-0.107,0.447-0.447,0.536-0.553c0.559-0.665,0.911-1.349,1.056-2.049C84.445,49.514,84.287,48.703,83.786,48.045z" fill="#9ae2dc"/><path d="M72.668,51.12c-0.141-0.141-0.234-0.215-0.362-0.315c-0.498-0.389-1.087-0.627-1.767-0.726  c-0.276-0.041-0.58-0.068-0.914-0.063c-0.335,0.004-0.689,0.044-1.089,0.094c-0.42,0.053-0.761,0.107-1.687,0.268  c-1.198,0.209-1.796,0.287-2.461,0.331c-0.481,0.029-0.911,0.019-1.403-0.016c-1.083-0.074-2.097,0.041-3.028,0.347  c-0.802,0.264-1.485,0.659-2.065,1.167c-0.105,0.093-0.353,0.34-0.441,0.442c-0.572,0.654-0.926,1.387-1.041,2.208  c-0.094,0.663-0.023,1.39,0.189,1.955c0.312,0.829,0.902,1.488,1.924,2.176c0.316,0.214,0.745,0.469,1.419,0.853  c0.958,0.544,1.446,0.87,1.877,1.214c0.616,0.491,1.173,1.14,1.734,2.034c0.171,0.271,0.324,0.521,0.663,1.12  c0.394,0.695,0.545,0.963,0.757,1.277c0.144,0.214,0.329,0.449,0.457,0.599c0.034,0.041,0.07,0.084,0.079,0.095  c0.008,0.011,0.11,0.128,0.236,0.253c0.245,0.242,0.307,0.285,0.505,0.426c0.595,0.422,1.335,0.679,2.145,0.741  c0.121,0.009,0.477,0.009,0.6,0c0.744-0.057,1.422-0.305,2.034-0.741c0.213-0.152,0.351-0.272,0.552-0.474  c0.149-0.149,0.248-0.252,0.362-0.395c0.665-0.829,1.086-1.887,1.262-3.122c0.085-0.592,0.104-1.201,0.063-1.876  c-0.04-0.667-0.023-1.175,0.048-1.814c0.065-0.599,0.153-1.091,0.378-2.113c0.188-0.856,0.261-1.192,0.315-1.545  c0.153-0.984,0.124-1.728-0.095-2.429C73.699,52.402,73.275,51.728,72.668,51.12z" fill="#9ae2dc"/><path d="M83.471,57.728c-0.092-0.139-0.155-0.228-0.284-0.362c-0.35-0.367-0.773-0.637-1.309-0.82  c-0.423-0.145-0.834-0.208-1.309-0.221c-0.141-0.004-0.284-0.009-0.426,0c-0.995,0.062-2.017,0.436-2.808,1.025  c-0.992,0.74-1.562,1.743-1.562,2.744c0,0.587,0.205,1.15,0.584,1.608c0.024,0.029,0.118,0.135,0.205,0.221  c0.17,0.166,0.229,0.22,0.395,0.331c0.583,0.396,1.355,0.617,2.145,0.631c0.409,0.007,0.749-0.017,1.136-0.095  c0.906-0.184,1.714-0.583,2.381-1.167c0.118-0.103,0.401-0.396,0.488-0.504c0.515-0.638,0.788-1.32,0.789-2.004  c0.001-0.297-0.05-0.529-0.142-0.804C83.681,58.091,83.599,57.92,83.471,57.728z" fill="#9ae2dc"/><path d="M76.09,46.342c0.728-0.973,1.134-2.075,1.167-3.17c0.02-0.616-0.1-1.229-0.347-1.719c-0.261-0.518-0.668-0.917-1.167-1.167  c-0.294-0.147-0.592-0.231-0.945-0.268c-0.109-0.01-0.453-0.011-0.568,0c-0.785,0.073-1.6,0.404-2.318,0.962  c-0.212,0.164-0.259,0.228-0.521,0.489c-0.267,0.267-0.327,0.339-0.504,0.568c-0.992,1.277-1.426,2.838-1.151,4.163  c0.109,0.532,0.32,0.996,0.646,1.372c0.063,0.073,0.221,0.234,0.301,0.299c0.268,0.22,0.596,0.377,0.93,0.474  c0.107,0.031,0.301,0.081,0.41,0.094c0.995,0.123,2.114-0.268,3.075-1.056C75.452,47.091,75.811,46.716,76.09,46.342z" fill="#9ae2dc"/><path d="M21.478,39.923c0.075,0.089,0.283,0.274,0.378,0.347c0.141,0.108,0.249,0.179,0.394,0.252  c1.057,0.537,2.365,0.257,3.438-0.741c0.66-0.613,1.163-1.45,1.419-2.366c0.365-1.3,0.186-2.645-0.473-3.517  c-0.171-0.227-0.397-0.434-0.615-0.583c-0.45-0.31-0.965-0.451-1.514-0.426l0,0c-0.329,0.015-0.67,0.083-1.009,0.221  c-0.262,0.106-0.583,0.3-0.836,0.489c-0.19,0.142-0.237,0.174-0.473,0.41c-0.241,0.241-0.286,0.297-0.441,0.505  c-0.747,0.995-1.126,2.285-1.025,3.454C20.787,38.738,21.042,39.405,21.478,39.923z" fill="#9ae2dc"/><path d="M28.149,68.326c-0.45-0.311-0.966-0.451-1.514-0.427c-0.329,0.015-0.67,0.084-1.009,0.222  c-0.262,0.105-0.567,0.283-0.82,0.473c-0.189,0.142-0.252,0.189-0.488,0.426c-0.241,0.241-0.286,0.297-0.442,0.505  c-0.747,0.994-1.125,2.269-1.025,3.438c0.066,0.771,0.32,1.453,0.757,1.972c0.075,0.088,0.284,0.274,0.378,0.347  c0.141,0.107,0.249,0.178,0.395,0.253c1.057,0.536,2.365,0.256,3.438-0.741c0.66-0.614,1.162-1.45,1.419-2.366  c0.365-1.301,0.186-2.645-0.473-3.517C28.592,68.682,28.366,68.476,28.149,68.326z" fill="#9ae2dc"/><path d="M35.908,41.437c-0.554,0.667-0.901,1.368-1.041,2.082c-0.182,0.933,0.04,1.793,0.615,2.444  c0.374,0.422,0.918,0.743,1.545,0.899c1.572,0.391,3.503-0.188,4.936-1.467c0.121-0.107,0.448-0.431,0.537-0.536  c0.559-0.666,0.911-1.35,1.056-2.05c0.187-0.896,0.027-1.708-0.473-2.366c-0.08-0.105-0.297-0.334-0.41-0.426  c-0.516-0.419-1.182-0.668-1.956-0.726c-0.138-0.011-0.463-0.009-0.615,0c-1.276,0.079-2.58,0.644-3.611,1.561  C36.355,40.975,36.011,41.313,35.908,41.437z" fill="#9ae2dc"/><path d="M68.253,12.578c0.065,0.075,0.222,0.22,0.299,0.284c0.27,0.22,0.581,0.393,0.915,0.489c0.107,0.031,0.316,0.065,0.426,0.079  c0.995,0.123,2.114-0.268,3.075-1.057c0.354-0.291,0.714-0.65,0.993-1.025c0.727-0.973,1.134-2.091,1.168-3.186  c0.019-0.616-0.101-1.214-0.348-1.704c-0.261-0.517-0.669-0.932-1.167-1.183c-0.295-0.148-0.592-0.231-0.946-0.268  c-0.108-0.01-0.468-0.011-0.583,0c-0.785,0.074-1.584,0.419-2.303,0.978c-0.211,0.165-0.26,0.212-0.521,0.473  c-0.267,0.267-0.343,0.339-0.521,0.568c-0.991,1.277-1.425,2.854-1.15,4.179C67.7,11.738,67.927,12.201,68.253,12.578z" fill="#9ae2dc"/><path d="M81.059,22.355c-0.351-0.367-0.79-0.62-1.325-0.804c-0.423-0.145-0.818-0.224-1.293-0.236c-0.141-0.004-0.268-0.009-0.41,0  c-0.997,0.062-2.033,0.435-2.823,1.025c-0.992,0.741-1.561,1.76-1.561,2.76c0,0.587,0.203,1.15,0.583,1.609  c0.023,0.028,0.117,0.119,0.205,0.205c0.17,0.167,0.229,0.22,0.394,0.332c0.584,0.395,1.355,0.617,2.146,0.63  c0.408,0.007,0.749-0.016,1.136-0.094c0.906-0.184,1.714-0.583,2.381-1.167c0.117-0.103,0.401-0.396,0.489-0.504  c0.514-0.637,0.771-1.304,0.772-1.987c0-0.297-0.034-0.53-0.127-0.805c-0.073-0.22-0.155-0.407-0.283-0.599  C81.25,22.579,81.187,22.49,81.059,22.355z" fill="#9ae2dc"/><path d="M60.052,12.53c0.075,0.089,0.283,0.274,0.379,0.347c0.141,0.108,0.232,0.178,0.378,0.252  c1.058,0.538,2.365,0.256,3.438-0.741c0.66-0.614,1.162-1.45,1.419-2.366c0.364-1.3,0.186-2.644-0.473-3.517  c-0.172-0.227-0.382-0.434-0.6-0.583c-0.45-0.31-0.966-0.451-1.514-0.425c-0.329,0.015-0.67,0.083-1.01,0.22  c-0.262,0.106-0.582,0.284-0.836,0.473c-0.189,0.142-0.237,0.19-0.473,0.426c-0.241,0.241-0.286,0.297-0.441,0.505  c-0.747,0.995-1.142,2.285-1.041,3.454C59.346,11.345,59.615,12.012,60.052,12.53z" fill="#9ae2dc"/><path d="M74.481,14.044c-0.554,0.667-0.901,1.367-1.04,2.082c-0.183,0.934,0.023,1.793,0.599,2.444  c0.374,0.423,0.935,0.743,1.562,0.899c1.572,0.391,3.503-0.189,4.936-1.467c0.121-0.107,0.448-0.431,0.536-0.536  c0.56-0.665,0.911-1.366,1.058-2.066c0.186-0.896,0.026-1.692-0.474-2.35c-0.08-0.105-0.313-0.334-0.426-0.426  c-0.516-0.419-1.166-0.668-1.939-0.726c-0.139-0.011-0.463-0.009-0.615,0c-1.276,0.079-2.58,0.644-3.611,1.561  C74.93,13.582,74.585,13.92,74.481,14.044z" fill="#9ae2dc"/><path d="M19.239,52.225c0.958,0.544,1.462,0.87,1.892,1.214c0.616,0.492,1.157,1.141,1.719,2.034  c0.17,0.271,0.323,0.537,0.662,1.136c0.394,0.695,0.562,0.963,0.773,1.277c0.144,0.214,0.313,0.434,0.441,0.583  c0.035,0.04,0.071,0.085,0.079,0.095c0.009,0.011,0.111,0.128,0.237,0.253c0.245,0.243,0.307,0.285,0.504,0.426  c0.595,0.422,1.335,0.679,2.145,0.741c0.121,0.009,0.477,0.009,0.6,0c0.745-0.057,1.422-0.305,2.034-0.741  c0.213-0.152,0.367-0.272,0.567-0.474c0.15-0.149,0.233-0.252,0.347-0.395c0.665-0.829,1.086-1.887,1.262-3.122  c0.084-0.592,0.12-1.201,0.079-1.876c-0.04-0.667-0.039-1.175,0.032-1.814c0.066-0.599,0.154-1.09,0.378-2.113  c0.188-0.857,0.26-1.177,0.315-1.53c0.154-0.984,0.124-1.743-0.095-2.445c-0.214-0.689-0.638-1.363-1.246-1.971  c-0.141-0.141-0.234-0.215-0.363-0.315c-0.498-0.388-1.071-0.627-1.75-0.726c-0.277-0.041-0.596-0.052-0.931-0.047  c-0.334,0.005-0.688,0.029-1.088,0.079c-0.42,0.052-0.762,0.106-1.688,0.268c-1.198,0.209-1.795,0.287-2.46,0.331  c-0.482,0.032-0.911,0.034-1.404,0c-1.083-0.074-2.096,0.041-3.028,0.347c-0.802,0.264-1.485,0.643-2.066,1.151  c-0.105,0.092-0.352,0.339-0.441,0.442c-0.572,0.654-0.926,1.402-1.041,2.224c-0.093,0.664-0.023,1.375,0.189,1.939  c0.312,0.83,0.903,1.504,1.924,2.191C18.136,51.602,18.564,51.841,19.239,52.225z" fill="#9ae2dc"/><path d="M29.679,39.971c0.063,0.073,0.235,0.219,0.315,0.284c0.269,0.219,0.581,0.393,0.915,0.488c0.107,0.031,0.3,0.065,0.41,0.079  c0.995,0.123,2.13-0.252,3.091-1.041c0.355-0.291,0.698-0.666,0.978-1.041c0.727-0.973,1.134-2.076,1.167-3.17  c0.019-0.616-0.1-1.229-0.347-1.719c-0.261-0.518-0.653-0.917-1.151-1.167c-0.294-0.148-0.608-0.247-0.962-0.284  c-0.109-0.01-0.452-0.011-0.568,0c-0.785,0.073-1.583,0.419-2.302,0.978c-0.211,0.165-0.275,0.212-0.536,0.473  c-0.267,0.267-0.327,0.339-0.505,0.568c-0.991,1.277-1.425,2.854-1.151,4.179C29.142,39.131,29.353,39.594,29.679,39.971z" fill="#9ae2dc"/><path d="M42.484,49.748c-0.35-0.367-0.773-0.62-1.309-0.804c-0.422-0.146-0.833-0.224-1.309-0.237c-0.141-0.004-0.268-0.009-0.41,0  c-0.994,0.062-2.017,0.435-2.807,1.025c-0.992,0.74-1.577,1.76-1.577,2.76c0,0.587,0.205,1.15,0.583,1.608  c0.024,0.029,0.118,0.119,0.205,0.205c0.17,0.166,0.23,0.22,0.394,0.331c0.584,0.396,1.355,0.633,2.145,0.646  c0.409,0.008,0.749-0.031,1.136-0.11c0.906-0.184,1.73-0.583,2.397-1.167c0.117-0.103,0.385-0.396,0.473-0.504  c0.514-0.638,0.788-1.304,0.788-1.987c0-0.298-0.034-0.53-0.126-0.805c-0.074-0.22-0.172-0.406-0.299-0.599  C42.676,49.972,42.612,49.883,42.484,49.748z" fill="#9ae2dc"/></svg>