<svg xmlns="http://www.w3.org/2000/svg" xmlns:xlink="http://www.w3.org/1999/xlink" version="1.1" x="0px" y="0px" viewBox="0 0 90 112.5" enable-background="new 0 0 90 90" xml:space="preserve"><path fill-rule="evenodd" clip-rule="evenodd" d="M27.229,15.34c1.089,0,1.969,0.881,1.969,1.969s-0.88,1.975-1.969,1.975  c-1.088,0-1.973-0.887-1.973-1.975S26.141,15.34,27.229,15.34z" fill="#ffffff"<svg xmlns="http://www.w3.org/2000/svg" xmlns:xlink="http://www.w3.org/1999/xlink" version="1.1" x="0px" y="0px" enable-background="new 0 0 90 90" xml:space="preserve" viewBox="3.71 9.1 82.53 71.79"><path fill-rule="evenodd" clip-rule="evenodd" d="M27.229,15.34c1.089,0,1.969,0.881,1.969,1.969s-0.88,1.975-1.969,1.975  c-1.088,0-1.973-0.887-1.973-1.975S26.141,15.34,27.229,15.34z" fill="#ffffff"></path><path fill-rule="evenodd" clip-rule="evenodd" d="M16.677,32.96c3.193,3.109,4.984,8.297,4.344,11.052  c-0.349,1.401-0.489,2.917-0.156,4.333c0.333,1.423,1.249,2.792,2.812,3.401c3.869,1.516,7.219,3.297,9.641,5.751  c0.031,0.885-0.043,1.801-0.261,2.771l-2.891,11.973c-1.457,0.547-2.817,1.229-3.645,2.391c-0.803,1.115-1.245,2.475-1.391,3.98  l-7.641,0.005c0-1.261,0.912-2.36,1.98-2.448l1.645,0.921c1.38,0.771,2.428-1.349,1.005-2.031c-3.64-1.745-5-4.964-4.568-7.595  c0.428-2.635,2.532-4.875,6.937-4.875c1.537,0.031,1.537-2.292,0-2.265c-5.244,0-8.577,3.093-9.176,6.776  c-0.401,2.463,0.375,5.125,2.239,7.271c-1.62,0.765-2.801,2.359-3.145,4.245H7.901c0.417-1.084,0.713-2.371,1.781-2.459  c0.448-0.037,0.833-0.333,0.979-0.761c2.136-6.255,1.385-9.077,0.792-11.416c-0.593-2.339-1.077-4.276,1.396-10.552  c0.005-0.011,0.011-0.021,0.016-0.036c0.353-1.016,0.276-2.204-0.401-3.063c-0.672-0.86-1.735-1.324-3.063-1.573  c-1.588-0.297-2.151-0.609-2.443-0.953c-0.292-0.339-0.484-1.041-0.839-2.339c-0.292-1.088,0.073-1.38,0.735-1.801  c1.333-0.849,2.167-2.136,2.651-3.328c0.495-1.24,1.923-2.401,3.375-2.792c0.605-0.156,0.964-0.781,0.803-1.385  c-0.235-0.875-0.011-1.407,0.177-1.771l1.244,1.233c0.803,1.183,2.267,0.324,1.595-0.943C16.224,33.992,16.322,33.32,16.677,32.96z   M31.797,11.372c2.12,0.016,4.156,0.588,5.521,1.604c1.219,0.907,2.208,3.079,3.692,5.047l3.641,4.817  c1.328,1.756,1.619,3.229,1.447,4.439c-0.176,1.208-0.869,2.219-1.76,2.916c-0.891,0.693-1.973,1.027-2.729,0.959  c-0.755-0.068-1.167-0.292-1.396-1.208l-2.724-10.891c-0.364-1.469-2.567-0.923-2.203,0.547l2.724,10.885  c0.432,1.729,1.901,2.792,3.401,2.927c1.495,0.131,3.031-0.427,4.323-1.432c0.475-0.369,0.917-0.812,1.297-1.308  c1.02,0.453,1.796,1.147,2.615,2.12l18.796,22.38c4.095,4.876,3.803,12.699,2.267,18.439c-0.204,0.76,0.405,1.489,1.187,1.427  c3.443-0.292,6.437-2.396,8.86-6.699c0.229-0.405,0.495-0.552,0.864-0.609c0.365-0.061,0.849,0.032,1.276,0.272  c0.855,0.484,1.453,1.328,0.907,2.728c-0.797,2.027-3.265,4.329-6.235,5.688c-2.973,1.36-6.359,1.797-8.921,0.708  c-0.371-0.156-0.797-0.109-1.12,0.136c-1.115,0.839-2.667,1.355-4.417,1.355l-20.411-0.005c0.583-2.412,2.463-4.495,4.833-4.792  c0.729,0.577,1.541,1.104,2.448,1.557c1.353,0.672,2.364-1.36,1.009-2.032c-4.348-2.172-6.041-6.052-5.515-9.301  c0.068-0.391,0.161-0.776,0.281-1.136c0.891-2.729,3.479-4.853,8.129-4.853c1.579,0.067,1.579-2.339,0-2.267  c-5.567,0-9.229,2.98-10.369,6.751l-6.849,12.817c-0.515,0.969-0.916,1.885-1.353,2.448c-0.437,0.563-0.756,0.808-1.584,0.808  h-6.088c0.151-0.98,0.255-2.005,0.724-2.657c0.667-0.932,1.645-1.609,3.115-2.004c0.405-0.105,0.713-0.428,0.812-0.833l2.984-12.339  c0.344-1.439,0.349-2.849,0.235-4.167c-0.249-2.985-1.473-5.625-2.631-8.276c-1.661-3.808-3.244-7.693-2.427-13.339  c0.469-3.235-1.948-6.349-5.249-6.975l-9.235-1.979c-0.98-0.208-1.308-1.12-1.432-1.896c-0.161-1.031,0.156-2.193,1.036-2.932  c0.131-0.109,0.651-0.412,1.292-0.693c0.635-0.287,1.405-0.588,2.177-0.916c0.771-0.328,1.552-0.636,2.192-1.063  c0.844-0.563,1.437-0.969,1.677-1.74c0.552-1.797,1.667-3.14,3.276-4.063C27.797,11.82,29.822,11.351,31.797,11.372z M31.818,9.096  c-2.339-0.021-4.735,0.516-6.761,1.677c-1.771,1.011-3.265,2.531-4.036,4.541c-0.256,0.661-0.475,0.959-0.937,1.276  c-0.475,0.323-1.199,0.615-1.937,0.927c-0.735,0.313-1.505,0.625-2.204,0.937c-0.703,0.313-1.307,0.589-1.823,1.027  c-1.563,1.307-2.083,3.281-1.828,5.005c0.26,1.724,1.364,3.396,3.203,3.781l9.281,1.979c2.095,0.443,3.704,2.563,3.433,4.427  c-0.901,6.215,0.911,10.724,2.593,14.573c0.719,1.656,1.391,3.177,1.864,4.699c-2.38-1.776-5.172-3.136-8.172-4.308  c-0.828-0.323-1.265-0.88-1.421-1.807c-0.197-1.167-0.073-2.328,0.156-3.303c0.969-4.115-1.24-9.708-5.083-13.355  c-0.521-0.495-1.297-0.681-1.912-0.5c-0.989,0.292-1.328,0.813-1.489,1.611c-0.229-0.396-0.756-0.62-1.183-0.548  c-0.667,0.115-1.14,0.511-1.495,0.991c-0.568,0.765-0.579,1.979-0.459,3.203c-1.765,0.703-3.489,1.781-4.208,3.568  c-0.355,0.875-0.984,1.791-1.708,2.219c-0.625,0.369-1.281,0.796-1.667,1.572c-0.385,0.776-0.417,1.704-0.109,2.724  c0.369,1.229,0.656,2.469,1.312,3.261c0.787,0.916,1.975,1.38,3.751,1.713c1.015,0.192,1.52,0.525,1.697,0.744  c0.172,0.224,0.224,0.396,0.047,0.912c-2.557,6.505-2.083,9.489-1.468,11.896c0.599,2.369,1.197,4.213-0.688,9.885  c-2.213,0.745-3.749,2.792-3.749,5.323c-0.005,0.625,0.5,1.136,1.129,1.136l27.781-0.005c1.495,0,2.667-0.771,3.375-1.683  c0.709-0.911,1.115-1.927,1.563-2.771l4.745-8.88c0.375,1.541,1.115,3.041,2.208,4.391c-3.213,1.109-5.656,4.224-5.656,7.812  c-0.005,0.631,0.505,1.141,1.135,1.136h22.011c1.948,0,3.656-0.672,5.131-1.609c3.287,1.197,7.036,0.687,10.271-0.797  c3.385-1.552,6.271-4.025,7.401-6.916c0.927-2.36-0.224-4.589-1.896-5.537c-0.833-0.473-1.803-0.687-2.765-0.531  c-0.964,0.161-1.917,0.765-2.469,1.744c-1.792,3.183-3.629,4.437-5.683,5.021c1.267-5.943,1.5-13.287-2.916-18.547L51.38,31.331  c-0.895-1.073-1.937-2.037-3.291-2.677c0.104-0.333,0.197-0.683,0.249-1.047c0.271-1.855-0.271-3.995-1.88-6.131  c-1.208-1.604-2.427-3.213-3.64-4.823c-1.245-1.641-2.163-4.016-4.141-5.489C36.797,9.768,34.322,9.117,31.818,9.096z" fill="#ffffff"></path><path fill-rule="evenodd" clip-rule="evenodd" d="M11.428,41.112c0.781,0,1.411,0.635,1.411,1.421c0,0.781-0.629,1.417-1.411,1.417  c-0.776,0-1.407-0.636-1.407-1.417C10.021,41.747,10.652,41.112,11.428,41.112z" fill="#ffffff"></path></svg>/><path fill-rule="evenodd" clip-rule="evenodd" d="M16.677,32.96c3.193,3.109,4.984,8.297,4.344,11.052  c-0.349,1.401-0.489,2.917-0.156,4.333c0.333,1.423,1.249,2.792,2.812,3.401c3.869,1.516,7.219,3.297,9.641,5.751  c0.031,0.885-0.043,1.801-0.261,2.771l-2.891,11.973c-1.457,0.547-2.817,1.229-3.645,2.391c-0.803,1.115-1.245,2.475-1.391,3.98  l-7.641,0.005c0-1.261,0.912-2.36,1.98-2.448l1.645,0.921c1.38,0.771,2.428-1.349,1.005-2.031c-3.64-1.745-5-4.964-4.568-7.595  c0.428-2.635,2.532-4.875,6.937-4.875c1.537,0.031,1.537-2.292,0-2.265c-5.244,0-8.577,3.093-9.176,6.776  c-0.401,2.463,0.375,5.125,2.239,7.271c-1.62,0.765-2.801,2.359-3.145,4.245H7.901c0.417-1.084,0.713-2.371,1.781-2.459  c0.448-0.037,0.833-0.333,0.979-0.761c2.136-6.255,1.385-9.077,0.792-11.416c-0.593-2.339-1.077-4.276,1.396-10.552  c0.005-0.011,0.011-0.021,0.016-0.036c0.353-1.016,0.276-2.204-0.401-3.063c-0.672-0.86-1.735-1.324-3.063-1.573  c-1.588-0.297-2.151-0.609-2.443-0.953c-0.292-0.339-0.484-1.041-0.839-2.339c-0.292-1.088,0.073-1.38,0.735-1.801  c1.333-0.849,2.167-2.136,2.651-3.328c0.495-1.24,1.923-2.401,3.375-2.792c0.605-0.156,0.964-0.781,0.803-1.385  c-0.235-0.875-0.011-1.407,0.177-1.771l1.244,1.233c0.803,1.183,2.267,0.324,1.595-0.943C16.224,33.992,16.322,33.32,16.677,32.96z   M31.797,11.372c2.12,0.016,4.156,0.588,5.521,1.604c1.219,0.907,2.208,3.079,3.692,5.047l3.641,4.817  c1.328,1.756,1.619,3.229,1.447,4.439c-0.176,1.208-0.869,2.219-1.76,2.916c-0.891,0.693-1.973,1.027-2.729,0.959  c-0.755-0.068-1.167-0.292-1.396-1.208l-2.724-10.891c-0.364-1.469-2.567-0.923-2.203,0.547l2.724,10.885  c0.432,1.729,1.901,2.792,3.401,2.927c1.495,0.131,3.031-0.427,4.323-1.432c0.475-0.369,0.917-0.812,1.297-1.308  c1.02,0.453,1.796,1.147,2.615,2.12l18.796,22.38c4.095,4.876,3.803,12.699,2.267,18.439c-0.204,0.76,0.405,1.489,1.187,1.427  c3.443-0.292,6.437-2.396,8.86-6.699c0.229-0.405,0.495-0.552,0.864-0.609c0.365-0.061,0.849,0.032,1.276,0.272  c0.855,0.484,1.453,1.328,0.907,2.728c-0.797,2.027-3.265,4.329-6.235,5.688c-2.973,1.36-6.359,1.797-8.921,0.708  c-0.371-0.156-0.797-0.109-1.12,0.136c-1.115,0.839-2.667,1.355-4.417,1.355l-20.411-0.005c0.583-2.412,2.463-4.495,4.833-4.792  c0.729,0.577,1.541,1.104,2.448,1.557c1.353,0.672,2.364-1.36,1.009-2.032c-4.348-2.172-6.041-6.052-5.515-9.301  c0.068-0.391,0.161-0.776,0.281-1.136c0.891-2.729,3.479-4.853,8.129-4.853c1.579,0.067,1.579-2.339,0-2.267  c-5.567,0-9.229,2.98-10.369,6.751l-6.849,12.817c-0.515,0.969-0.916,1.885-1.353,2.448c-0.437,0.563-0.756,0.808-1.584,0.808  h-6.088c0.151-0.98,0.255-2.005,0.724-2.657c0.667-0.932,1.645-1.609,3.115-2.004c0.405-0.105,0.713-0.428,0.812-0.833l2.984-12.339  c0.344-1.439,0.349-2.849,0.235-4.167c-0.249-2.985-1.473-5.625-2.631-8.276c-1.661-3.808-3.244-7.693-2.427-13.339  c0.469-3.235-1.948-6.349-5.249-6.975l-9.235-1.979c-0.98-0.208-1.308-1.12-1.432-1.896c-0.161-1.031,0.156-2.193,1.036-2.932  c0.131-0.109,0.651-0.412,1.292-0.693c0.635-0.287,1.405-0.588,2.177-0.916c0.771-0.328,1.552-0.636,2.192-1.063  c0.844-0.563,1.437-0.969,1.677-1.74c0.552-1.797,1.667-3.14,3.276-4.063C27.797,11.82,29.822,11.351,31.797,11.372z M31.818,9.096  c-2.339-0.021-4.735,0.516-6.761,1.677c-1.771,1.011-3.265,2.531-4.036,4.541c-0.256,0.661-0.475,0.959-0.937,1.276  c-0.475,0.323-1.199,0.615-1.937,0.927c-0.735,0.313-1.505,0.625-2.204,0.937c-0.703,0.313-1.307,0.589-1.823,1.027  c-1.563,1.307-2.083,3.281-1.828,5.005c0.26,1.724,1.364,3.396,3.203,3.781l9.281,1.979c2.095,0.443,3.704,2.563,3.433,4.427  c-0.901,6.215,0.911,10.724,2.593,14.573c0.719,1.656,1.391,3.177,1.864,4.699c-2.38-1.776-5.172-3.136-8.172-4.308  c-0.828-0.323-1.265-0.88-1.421-1.807c-0.197-1.167-0.073-2.328,0.156-3.303c0.969-4.115-1.24-9.708-5.083-13.355  c-0.521-0.495-1.297-0.681-1.912-0.5c-0.989,0.292-1.328,0.813-1.489,1.611c-0.229-0.396-0.756-0.62-1.183-0.548  c-0.667,0.115-1.14,0.511-1.495,0.991c-0.568,0.765-0.579,1.979-0.459,3.203c-1.765,0.703-3.489,1.781-4.208,3.568  c-0.355,0.875-0.984,1.791-1.708,2.219c-0.625,0.369-1.281,0.796-1.667,1.572c-0.385,0.776-0.417,1.704-0.109,2.724  c0.369,1.229,0.656,2.469,1.312,3.261c0.787,0.916,1.975,1.38,3.751,1.713c1.015,0.192,1.52,0.525,1.697,0.744  c0.172,0.224,0.224,0.396,0.047,0.912c-2.557,6.505-2.083,9.489-1.468,11.896c0.599,2.369,1.197,4.213-0.688,9.885  c-2.213,0.745-3.749,2.792-3.749,5.323c-0.005,0.625,0.5,1.136,1.129,1.136l27.781-0.005c1.495,0,2.667-0.771,3.375-1.683  c0.709-0.911,1.115-1.927,1.563-2.771l4.745-8.88c0.375,1.541,1.115,3.041,2.208,4.391c-3.213,1.109-5.656,4.224-5.656,7.812  c-0.005,0.631,0.505,1.141,1.135,1.136h22.011c1.948,0,3.656-0.672,5.131-1.609c3.287,1.197,7.036,0.687,10.271-0.797  c3.385-1.552,6.271-4.025,7.401-6.916c0.927-2.36-0.224-4.589-1.896-5.537c-0.833-0.473-1.803-0.687-2.765-0.531  c-0.964,0.161-1.917,0.765-2.469,1.744c-1.792,3.183-3.629,4.437-5.683,5.021c1.267-5.943,1.5-13.287-2.916-18.547L51.38,31.331  c-0.895-1.073-1.937-2.037-3.291-2.677c0.104-0.333,0.197-0.683,0.249-1.047c0.271-1.855-0.271-3.995-1.88-6.131  c-1.208-1.604-2.427-3.213-3.64-4.823c-1.245-1.641-2.163-4.016-4.141-5.489C36.797,9.768,34.322,9.117,31.818,9.096z" fill="#ffffff"/><path fill-rule="evenodd" clip-rule="evenodd" d="M11.428,41.112c0.781,0,1.411,0.635,1.411,1.421c0,0.781-0.629,1.417-1.411,1.417  c-0.776,0-1.407-0.636-1.407-1.417C10.021,41.747,10.652,41.112,11.428,41.112z" fill="#ffffff" /></svg>