<svg xmlns="http://www.w3.org/2000/svg" x="0px" y="0px" viewBox="8.48 8.5 83 83.01"><path d="M25.5,57.1c-3.04,0-5.52,2.57-5.52,5.72s2.47,5.72,5.52,5.72,5.52-2.57,5.52-5.72-2.47-5.72-5.52-5.72Zm0,8.45c-1.39,0-2.52-1.22-2.52-2.72s1.13-2.72,2.52-2.72,2.52,1.22,2.52,2.72-1.13,2.72-2.52,2.72Z" fill="#ffffff"></path><path d="M74.5,57.1c-3.04,0-5.52,2.57-5.52,5.72s2.47,5.72,5.52,5.72,5.52-2.57,5.52-5.72-2.47-5.72-5.52-5.72Zm0,8.45c-1.39,0-2.52-1.22-2.52-2.72s1.13-2.72,2.52-2.72,2.52,1.22,2.52,2.72-1.13,2.72-2.52,2.72Z" fill="#ffffff"></path><path d="M29.46,49.69h41.07c.43,0,.84-.18,1.12-.51s.42-.75,.36-1.18l-2.18-17.52c-.09-.75-.73-1.31-1.49-1.31H31.64c-.76,0-1.4,.56-1.49,1.31l-2.18,17.52c-.05,.43,.08,.86,.36,1.18s.69,.51,1.12,.51Zm3.5-17.52h34.06l1.81,14.52H31.16l1.81-14.52Z" fill="#ffffff"></path><path d="M89.23,72.59v-11.37c0-2.35-.87-4.6-2.44-6.34l-6.57-7.27-3.51-20.39c-.54-3.16-3.27-5.46-6.48-5.46h-2.24l-3.72-12.2c-.19-.63-.77-1.06-1.44-1.06h-25.68c-.66,0-1.24,.43-1.44,1.06l-3.72,12.2h-2.24c-3.21,0-5.93,2.3-6.48,5.46l-3.51,20.39-6.57,7.27c-1.57,1.74-2.44,3.99-2.44,6.34v11.37c-1.34,.66-2.27,2.02-2.27,3.61v2.15c0,2.23,1.81,4.04,4.04,4.04h2.59v4.39c0,2.61,2.12,4.73,4.73,4.73h7.55c2.61,0,4.73-2.12,4.73-4.73v-4.39h35.72v4.39c0,2.61,2.12,4.73,4.73,4.73h7.55c2.61,0,4.73-2.12,4.73-4.73v-4.39h2.59c2.23,0,4.04-1.81,4.04-4.04v-2.15c0-1.59-.93-2.95-2.27-3.61ZM38.27,11.5h23.46l3.14,10.31h-29.74l3.14-10.31ZM13.77,61.21c0-1.6,.59-3.14,1.67-4.32l6.87-7.59c.19-.21,.32-.47,.37-.75l3.58-20.82c.3-1.72,1.78-2.97,3.52-2.97h2.98c.11,.03,.23,.04,.35,.04h33.79c.12,0,.24-.01,.35-.04h2.98c1.75,0,3.23,1.25,3.52,2.97l3.58,20.82c.05,.28,.17,.54,.37,.75l6.87,7.59c1.07,1.19,1.67,2.72,1.67,4.32v10.95H13.77v-10.95Zm15.37,25.55c0,.96-.78,1.73-1.73,1.73h-7.55c-.96,0-1.73-.78-1.73-1.73v-4.39h11.02v4.39Zm52.73,0c0,.96-.78,1.73-1.73,1.73h-7.55c-.96,0-1.73-.78-1.73-1.73v-4.39h11.02v4.39Zm6.62-8.42c0,.57-.46,1.04-1.04,1.04H12.54c-.57,0-1.04-.46-1.04-1.04v-2.15c0-.57,.46-1.04,1.04-1.04H87.46c.57,0,1.04,.46,1.04,1.04v2.15Z" fill="#ffffff"></path><path d="M59.78,52.89c-2.37,0-4.36,1.68-4.84,3.92h-9.88c-.48-2.23-2.47-3.92-4.84-3.92-2.73,0-4.95,2.22-4.95,4.95,0,1.14,.4,2.22,1.09,3.08-.69,.86-1.09,1.94-1.09,3.1,0,2.73,2.22,4.95,4.95,4.95,2.37,0,4.36-1.68,4.84-3.92h9.88c.48,2.23,2.47,3.92,4.84,3.92,2.73,0,4.95-2.22,4.95-4.95,0-1.16-.39-2.24-1.08-3.1,.69-.86,1.08-1.93,1.08-3.09,0-2.73-2.22-4.95-4.95-4.95Zm.86,9.39c.67,.32,1.09,.99,1.09,1.74,0,1.07-.87,1.95-1.95,1.95s-1.95-.87-1.95-1.95c0-.08,0-.16,.01-.23,.07-.43-.06-.88-.34-1.21-.28-.33-.7-.53-1.14-.53h-12.72c-.44,0-.86,.19-1.14,.53-.29,.33-.41,.78-.34,1.21,.01,.07,.01,.16,.01,.23,0,1.07-.87,1.95-1.95,1.95s-1.95-.87-1.95-1.95c0-.75,.42-1.42,1.09-1.75,.52-.25,.84-.78,.84-1.35,0-.57-.33-1.1-.85-1.35-.66-.32-1.09-1-1.09-1.74,0-1.07,.87-1.95,1.95-1.95s1.95,.87,1.95,1.95c0,.08,0,.16-.01,.23-.07,.43,.06,.88,.34,1.21,.28,.33,.7,.53,1.14,.53h12.72c.44,0,.86-.19,1.14-.53,.29-.33,.41-.78,.34-1.21-.01-.07-.01-.16-.01-.23,0-1.07,.87-1.95,1.95-1.95s1.95,.87,1.95,1.95c0,.75-.42,1.41-1.09,1.74-.52,.25-.85,.78-.85,1.35s.33,1.1,.85,1.35Z" fill="#ffffff"></path></svg>