<svg xmlns="http://www.w3.org/2000/svg" version="1.1" xml:space="preserve" x="0px" y="0px" viewBox="0.53 0.53 15.87 15.88"><path d="m4.7623 0.52917c-0.87356-1.1e-7 -1.5879 0.71391-1.5879 1.5875 0.00101 0.42794 0.17319 0.82138 0.45318 1.1075 0.16993 0.17362 0.29982 0.34073 0.35706 0.48629 0.057244 0.14556 0.06365 0.26247-0.023253 0.43978-0.53509 1.0917-0.78699 2.2332-0.78699 3.787 0 0.73297 0.061665 1.3694 0.17776 1.9565-0.18448-0.16528-0.38913-0.31824-0.64592-0.35761l-0.065625-0.32661c-0.023813-0.12113-0.12826-0.20972-0.25165-0.21343-0.019746-6.544e-4 -0.039509 9.061e-4 -0.058908 0.00465-0.14438 0.028055-0.23818 0.16853-0.20876 0.31265l0.060976 0.30438c-0.074806 0.033724-0.15075 0.076882-0.2284 0.13436-0.22448 0.16618-0.43147 0.45315-0.49451 0.86147-0.09769 0.0425-0.20428 0.07369-0.29144 0.12454l-0.1359-0.27286c-0.064901-0.12919-0.22383-0.1842-0.35551-0.11731-0.1302 0.06494-0.18354 0.22289-0.11937 0.35348l0.19843 0.39585c-0.05636 0.07828-0.10441 0.16454-0.14159 0.25839-0.14662 0.3701-0.11137 0.84436 0.17362 1.3261 6.7709e-4 0.0014 0.001366 0.0027 0.002067 0.0041 0.34197 0.55831 0.51777 0.80422 0.51777 1.8377-1.4e-6 5e-4 0.015502 1.6191 0.015502 1.6191 0.0017 0.14612 0.12156 0.26321 0.26767 0.26149 0.1459-0.0017 0.2629-0.12126 0.26147-0.26718l-0.015502-1.6134c0-1.1022-0.25308-1.5547-0.59373-2.111-0.22041-0.37255-0.219-0.65431-0.13693-0.86147 0.082067-0.20716 0.26188-0.35114 0.45111-0.4005 0.21074-0.05497 0.38718-0.22013 0.42372-0.45683 0.043221-0.27996 0.16125-0.42281 0.28679-0.51575 0.12486-0.09243 0.27715-0.1222 0.30849-0.12299 0.22329-6.84e-4 0.49525 0.16563 0.66039 0.3633 0.10576 0.12663 0.30039 0.12663 0.40615 0 0.1632-0.19453 0.41873-0.35232 0.68726-0.35554 0.19419 0.01967 0.50232 0.20292 0.56841 0.63099 0.03661 0.23714 0.21516 0.40188 0.42579 0.45683 0.18922 0.04935 0.36703 0.19336 0.44904 0.4005 0.082008 0.20715 0.08401 0.48891-0.13642 0.86147-0.33353 0.56258-0.59284 1.0058-0.59373 2.1069l-0.015502 1.6176c-0.00143 0.14591 0.11557 0.26547 0.26147 0.26718 0.1461 0.0017 0.26596-0.11538 0.26767-0.26149l0.00982-1.0186c0.068642-0.04061 0.13428-0.08576 0.19584-0.13591 0.18816-0.1533 0.36912-0.26796 0.52914-0.31834 0.16002-0.05037 0.29484-0.05039 0.47488 0.03721 0.84953 0.41335 1.856 0.63874 3.0229 0.63874 1.1669 0 2.1739-0.22539 3.0234-0.63874 0.18004-0.0876 0.31434-0.08758 0.47436-0.03721 0.16002 0.05037 0.34149 0.16505 0.52965 0.31834 0.27425 0.22342 0.62458 0.357 0.99988 0.35761 0.87356 0 1.5879-0.71442 1.5879-1.5881-1.32e-4 -0.42845-0.17321-0.8228-0.45318-1.1095-0.16974-0.17384-0.2982-0.34038-0.35551-0.48629-0.05732-0.14591-0.06356-0.26197 0.02325-0.43926 0.53422-1.0911 0.78544-2.2329 0.78544-3.7854 0-1.5537-0.25249-2.6953-0.7875-3.787-0.08694-0.1774-0.08047-0.29419-0.02325-0.43978 0.05723-0.14559 0.18767-0.3127 0.35758-0.48629 0.28-0.28608 0.45217-0.6795 0.45318-1.1075 0-0.87364-0.71436-1.5875-1.5879-1.5875-0.3753 6.1025e-4 -0.72563 0.13161-0.99988 0.35503-0.18817 0.15329-0.36963 0.27003-0.52965 0.3204-0.16002 0.050373-0.29433 0.05039-0.47436-0.037209-0.84953-0.41335-1.8565-0.63822-3.0234-0.63822-1.1661 0-2.1722 0.2254-3.0213 0.63822-0.18004 0.087529-0.31617 0.085548-0.47643 0.035142-0.16026-0.050407-0.33877-0.16518-0.52707-0.31834-0.27463-0.22337-0.62635-0.35491-1.0019-0.35503zm0 0.52918c0.25186 7.99e-5 0.48423 0.087012 0.66762 0.23617 0.21215 0.17255 0.43867 0.33071 0.70327 0.41394 0.26461 0.083227 0.57121 0.076691 0.86501-0.066148 0.76963-0.37417 1.6927-0.58396 2.7909-0.58396 1.0989 1e-7 2.0209 0.2114 2.7909 0.58603 0.29373 0.14292 0.60256 0.14735 0.86708 0.064081 0.26452-0.08327 0.49124-0.23914 0.70328-0.41187 0.18313-0.14919 0.41441-0.23783 0.66607-0.23824 0.5876 3e-7 1.0583 0.47071 1.0583 1.0584-0.0012 0.28664-0.11617 0.54572-0.3028 0.73641-0.19114 0.19529-0.36902 0.4045-0.47023 0.662-0.10121 0.2575-0.1044 0.57136 0.04083 0.86767 0.50035 1.021 0.73221 2.0565 0.73221 3.5544 0 1.4968-0.23258 2.5324-0.73221 3.5529-0.14511 0.29638-0.14046 0.60803-0.03927 0.86561 0.10118 0.25758 0.2778 0.46858 0.46868 0.66406 0.18703 0.19155 0.30272 0.45021 0.3028 0.73796 0 0.58765-0.47067 1.0589-1.0583 1.0589-0.25166-4.06e-4 -0.48294-0.08904-0.66607-0.23824-0.21203-0.17273-0.43875-0.32912-0.70327-0.41239-0.26452-0.08327-0.57335-0.07832-0.86708 0.0646-0.76996 0.37463-1.6919 0.58603-2.7909 0.58603-1.0989 0-2.0225-0.2114-2.7924-0.58603-0.29374-0.14292-0.60101-0.14787-0.86553-0.0646-0.20539 0.06466-0.38707 0.17401-0.55756 0.30025 0.0072-0.98022 0.18601-1.2248 0.51777-1.7844 0.28498-0.48167 0.32066-0.95595 0.17414-1.3261-0.037154-0.09385-0.085231-0.1801-0.14159-0.25839l0.19791-0.39585c0.064245-0.13045 0.011157-0.28835-0.11885-0.35348-0.13114-0.06674-0.28879-0.01281-0.35345 0.11731l-0.13694 0.2739c-0.093749-0.051568-0.1952-0.089318-0.29299-0.12558-0.0771-0.49938-0.37728-0.84542-0.72239-0.99894l0.060458-0.30128c0.029483-0.14362-0.063464-0.28386-0.20721-0.31265-0.12906-0.026147-0.28146 0.051333-0.31211 0.20878l-0.066659 0.33384c-0.12081 0.021695-0.22922 0.066143-0.32968 0.12351-0.0913-0.5145-0.13848-1.0766-0.13848-1.7297 0-1.498 0.2323-2.5334 0.73273-3.5544 0.14521-0.29627 0.14207-0.61022 0.040822-0.86767-0.10124-0.25745-0.27962-0.46671-0.47074-0.662-0.18705-0.19112-0.30213-0.45107-0.30281-0.73848 0.0010465-0.58674 0.47184-1.0563 1.0588-1.0563zm3.7546 3.7032c-0.067553-0.00131-0.13583 0.00651-0.20411 0.024806-0.2731 0.073183-0.4666 0.29429-0.56117 0.54675-0.094573 0.25247-0.10575 0.54808-0.026353 0.84442 0.079397 0.29634 0.23678 0.54646 0.44491 0.71781 0.20812 0.17135 0.48598 0.26388 0.75908 0.19069 0.2731-0.073184 0.46505-0.2917 0.55962-0.54417 0.094574-0.25247 0.10575-0.54808 0.026354-0.84442-0.079398-0.29634-0.23678-0.54646-0.44491-0.71781-0.15609-0.12851-0.35076-0.21415-0.55342-0.21808zm2.5439 0.00103c-0.20252 0.0034-0.3963 0.088018-0.55239 0.21653-0.20812 0.17135-0.36603 0.42147-0.44542 0.71781-0.079398 0.29634-0.067706 0.59195 0.02687 0.84442 0.09457 0.25247 0.28601 0.47254 0.55911 0.54572 0.2731 0.073183 0.55147-0.021409 0.7596-0.19276 0.20812-0.17135 0.36551-0.42147 0.44491-0.71781 0.0794-0.29634 0.06823-0.59195-0.02635-0.84442-0.094577-0.25246-0.28859-0.4715-0.56169-0.54468-0.068275-0.018296-0.13712-0.025938-0.20463-0.024806zm-2.5485 0.52764c0.06557 9.684e-4 0.13981 0.029327 0.2222 0.097155 0.10985 0.090437 0.21677 0.24985 0.26974 0.44753 0.052964 0.19768 0.03958 0.38715-0.010339 0.5204-0.04991 0.13325-0.12178 0.20033-0.20152 0.2217-0.079745 0.02137-0.17694-5.17e-4 -0.28679-0.090953-0.10985-0.090436-0.21625-0.24778-0.26922-0.44546-0.052964-0.19768-0.040097-0.38922 0.0098181-0.52247 0.049915-0.13325 0.12385-0.19878 0.20359-0.22015 0.019936-0.00534 0.040669-0.00808 0.062525-0.00775zm2.5532 0.00103c0.02186-3.227e-4 0.04259 0.00241 0.06253 0.00775 0.07974 0.021368 0.1542 0.0869 0.20411 0.22015 0.04992 0.13325 0.0633 0.32271 0.01034 0.5204-0.05297 0.19768-0.1599 0.3571-0.26974 0.44753-0.10984 0.090437-0.20704 0.11026-0.28679 0.088886-0.07974-0.021369-0.15213-0.086384-0.20204-0.21963-0.04992-0.13325-0.06227-0.32478-0.0093-0.52247s0.15886-0.35503 0.2687-0.44546c0.08239-0.067828 0.15663-0.096187 0.2222-0.097155zm1.6303 1.3224c-0.13432 7.266e-4 -0.26848 0.033066-0.39117 0.088886-0.24538 0.11164-0.46205 0.31517-0.61543 0.58086-0.15338 0.26569-0.2203 0.55282-0.19429 0.82116 0.02601 0.26834 0.15665 0.53044 0.4015 0.67181 0.24486 0.14138 0.53696 0.12353 0.78234 0.011886s0.4605-0.31362 0.61388-0.57931c0.15338-0.26569 0.22186-0.55437 0.19584-0.82271-0.026013-0.26834-0.15665-0.53043-0.4015-0.67181-0.12243-0.07069-0.25685-0.1015-0.39117-0.10077zm-5.8138 5.203e-4c-0.13456-0.0011494-0.26926 0.029566-0.39168 0.10026-0.24485 0.14138-0.3729 0.40399-0.39892 0.67233-0.026014 0.26834 0.039357 0.5565 0.19274 0.8222 0.15338 0.26569 0.37057 0.46664 0.61595 0.57828 0.24538 0.11164 0.53593 0.13053 0.78078-0.010852 0.24485-0.14138 0.37549-0.40347 0.4015-0.67181 0.026014-0.26834-0.039357-0.5565-0.19274-0.8222-0.15338-0.26569-0.37057-0.46664-0.61595-0.57828-0.12269-0.05582-0.25712-0.08877-0.39168-0.08992zm0.00103 0.52712c0.049861 7.317e-4 0.10732 0.013949 0.17207 0.043409 0.12951 0.058922 0.27386 0.18502 0.37618 0.36226 0.10232 0.17724 0.13827 0.36378 0.12454 0.50541-0.013729 0.14163-0.068021 0.22434-0.13952 0.26563-0.071497 0.041282-0.16865 0.046003-0.29816-0.01292-0.12951-0.058922-0.27283-0.18347-0.37515-0.36071-0.10232-0.17724-0.13981-0.36533-0.12608-0.50696 0.01373-0.14163 0.066471-0.22331 0.13797-0.26459 0.035749-0.020641 0.078288-0.032255 0.12815-0.031524zm5.8117 5.168e-4c0.04944-9.757e-4 0.09189 0.010364 0.12763 0.031007 0.0715 0.041281 0.12424 0.12296 0.13797 0.26459 0.01373 0.14163-0.02377 0.32972-0.12608 0.50696-0.10232 0.17724-0.24564 0.30179-0.37515 0.36071-0.1295 0.058924-0.22666 0.054202-0.29816 0.012919-0.0715-0.041281-0.12424-0.12296-0.13797-0.26459-0.01373-0.14163 0.02221-0.32817 0.12453-0.50541 0.10232-0.17724 0.24668-0.30334 0.37618-0.36226 0.06476-0.029461 0.1216-0.04295 0.17104-0.043926zm-2.9061 0.53125c-0.37276-7.7e-4 -0.74628 0.17246-0.99213 0.52143l-0.94666 1.3426c-0.44244 0.62801-0.0077674 1.558 0.72963 1.5622l2.4162 0.01292c0.73538 0.0042 1.1748-0.92068 0.73583-1.5488l-0.95492-1.3643c-0.24458-0.34998-0.61523-0.52531-0.988-0.52608zm-0.00206 0.53694c0.21653 4.473e-4 0.43232 0.10521 0.57874 0.31472l0.95492 1.3643c0.20581 0.2945 0.02235 0.67949-0.32244 0.6775l-2.4162-0.01292c-0.34796-0.002006-0.52916-0.39252-0.32038-0.68887l0.94459-1.3421c0.14718-0.2089 0.36428-0.3131 0.58081-0.31265z" color="#ffffff" fill="#ffffff"></path></svg>