<svg xmlns="http://www.w3.org/2000/svg" version="1.1" viewBox="10.73 3.5 78.53 93"> <path d="m10.738 56.781v0.17188c0.12109 1.1094 3.4609 27.301 38.77 39.469 0.16016 0.050781 0.32031 0.078125 0.48828 0.078125 0.17188 0 0.32812-0.03125 0.48828-0.078125 35.309-12.172 38.641-38.359 38.77-39.469v-0.17188l0.007813-39.781c0-0.78125-0.60156-1.4414-1.3789-1.5-22.602-1.7617-36.871-11.629-37.02-11.73-0.51953-0.35938-1.2109-0.35938-1.7305 0-0.14062 0.10156-14.422 9.9805-37.02 11.73-0.78125 0.058594-1.3789 0.71094-1.3789 1.5l-0.003906 39.781zm3-38.398c19.762-1.8281 32.852-9.3984 36.262-11.578 3.4102 2.1797 16.5 9.75 36.262 11.578v38.297c-0.21094 1.5-4.1602 25.441-36.262 36.73-32.121-11.289-36.051-35.25-36.262-36.73v-38.301z" fill="#7688e9"></path> <path d="m49.512 89.238c0.16016 0.058594 0.32812 0.078125 0.48828 0.078125s0.32812-0.03125 0.48828-0.078125c29.5-10.281 32.281-32.441 32.391-33.371v-0.17188-33.434c0-0.78125-0.60156-1.4297-1.3789-1.5-18.699-1.4688-30.52-9.7305-30.641-9.8086-0.51953-0.37109-1.2188-0.37109-1.7383 0-0.12109 0.078125-11.93 8.3398-30.641 9.8086-0.78125 0.058593-1.3789 0.71094-1.3789 1.5v33.438 0.17188c0.10156 0.94141 2.8906 23.102 32.391 33.371zm-29.402-65.598c16.09-1.5586 26.84-7.7109 29.891-9.6602 3.0508 1.9492 13.801 8.1016 29.891 9.6602v31.969c-0.21094 1.6016-3.2812 21.129-29.891 30.621-26.629-9.5-29.68-29.039-29.891-30.621z" fill="#7688e9"></path> <path d="m40.031 42.191c0.96094 0.62891 1.9805 0.94922 3 0.94922 0.33984 0 0.69141-0.039063 1.0312-0.10938 3.4609-0.75 5.3984-5.0195 4.4297-9.7188-0.55859-2.6797-2.0195-5.0195-3.9102-6.25-1.2891-0.83984-2.6914-1.1289-4.0312-0.82812-3.4609 0.75-5.3984 5.0195-4.4297 9.7188 0.55859 2.6797 2.0195 5.0195 3.9102 6.2383zm2.9219-12.621c1.2109 0.78906 2.2109 2.4492 2.6016 4.3398 0.60937 2.9219-0.39063 5.8086-2.1211 6.1797-0.69922 0.14844-1.3398-0.14062-1.7617-0.42188-1.2109-0.78906-2.2109-2.4492-2.6016-4.3398-0.60156-2.9219 0.39063-5.8086 2.1211-6.1797 0.12891-0.03125 0.26172-0.039063 0.39062-0.039063 0.53906 0 1.0391 0.23828 1.3789 0.46094z" fill="#7688e9"></path> <path d="m34.379 56.988c3.6914-1.6484 4.8711-6.9102 2.6914-11.98-1.25-2.8984-3.4297-5.1914-5.8398-6.1406-1.6289-0.64063-3.25-0.62891-4.6797 0-3.6797 1.6484-4.8711 6.9102-2.6914 11.98 1.25 2.8984 3.4297 5.1914 5.8398 6.1289 0.80859 0.32031 1.6211 0.46875 2.3984 0.46875 0.78125 0 1.5586-0.16016 2.2812-0.48047zm-3.5898-2.7891c-1.6797-0.64844-3.2383-2.3516-4.1719-4.5195-1.4688-3.4297-0.94141-7.1211 1.1602-8.0586 0.35156-0.16016 0.71094-0.21875 1.0508-0.21875 0.5 0 0.96094 0.12891 1.3086 0.26953 1.6797 0.64844 3.2383 2.3516 4.1719 4.5195 1.4688 3.4297 0.94141 7.1211-1.1602 8.0586-0.85938 0.37891-1.7617 0.19141-2.3594-0.050781z" fill="#7688e9"></path> <path d="m55.941 43.031c0.33984 0.070312 0.69141 0.10938 1.0312 0.10938 1.0195 0 2.0391-0.32031 3-0.94922 1.8906-1.2305 3.3516-3.5586 3.9102-6.2383 0.98047-4.7109-0.96875-8.9805-4.4297-9.7188-1.3516-0.28906-2.7383 0-4.0312 0.82812-1.8906 1.2305-3.3516 3.5586-3.9102 6.25-0.98047 4.7109 0.96875 8.9805 4.4297 9.7188zm1.1211-13.449c0.33984-0.21875 0.82812-0.46094 1.3789-0.46094 0.12891 0 0.25 0.011718 0.39062 0.039062 1.7383 0.37109 2.7305 3.2617 2.1211 6.1797-0.39062 1.8906-1.3906 3.5508-2.6016 4.3398-0.42187 0.26953-1.0586 0.57031-1.7617 0.42187-1.7383-0.37891-2.7305-3.2617-2.1211-6.1797 0.39062-1.8906 1.3906-3.5508 2.6016-4.3398z" fill="#7688e9"></path> <path d="m62.93 45c-2.1797 5.0703-1 10.328 2.6914 11.98 0.71875 0.32031 1.4805 0.48047 2.2812 0.48047 0.80078 0 1.5898-0.16016 2.3984-0.46875 2.4102-0.94141 4.5898-3.2305 5.8398-6.1406 2.1797-5.0703 1-10.328-2.6914-11.98-1.4297-0.64062-3.0508-0.64062-4.6797 0-2.4102 0.94141-4.5898 3.2305-5.8398 6.1289zm6.9297-3.3398c0.60156-0.23047 1.5-0.42969 2.3594-0.050781 2.1016 0.94141 2.6289 4.6289 1.1602 8.0586-0.94141 2.1797-2.5 3.8711-4.1719 4.5195-0.60156 0.23828-1.5 0.42969-2.3594 0.050781-2.1016-0.94141-2.6289-4.6289-1.1602-8.0586 0.94141-2.1797 2.5-3.8711 4.1719-4.5195z" fill="#7688e9"></path> <path d="m39.34 52.961c-0.32031 2.6719-1.6406 4.2891-3.0391 6.0117-1.8789 2.3086-4.0195 4.9297-2.7617 9.8203 1.0391 4.0195 4.7188 6.3281 9.6406 6.3281 1.3008 0 2.6914-0.16016 4.1484-0.5 1.7695-0.41016 3.5703-0.41016 5.3398 0 6.9297 1.6016 12.469-0.75 13.789-5.8398 1.2617-4.8906-0.87891-7.5117-2.7617-9.8203-1.3984-1.7109-2.7188-3.3281-3.0391-6.0117-0.96875-8.0703-7.3906-10.219-10.672-10.238-3.2617 0.011718-9.6914 2.1719-10.66 10.238zm10.66-7.2383c0.28125 0 6.7891 0.10938 7.6914 7.6016 0.42969 3.5391 2.1602 5.6719 3.6914 7.5391 1.7812 2.1797 3.0586 3.75 2.1797 7.1797-1.0781 4.1914-6.1797 4.5898-10.211 3.6602-2.2188-0.51172-4.4688-0.51172-6.6914 0-4.0312 0.92969-9.1289 0.53125-10.211-3.6602-0.87891-3.4297 0.39844-5 2.1797-7.1797 1.5312-1.8789 3.2695-4.0117 3.6914-7.5391 0.89063-7.4219 7.4219-7.5898 7.6797-7.5898z" fill="#7688e9"></path></svg>