<svg width="90" height="113" viewBox="0 0 90 113" fill="none" xmlns="http://www.w3.org/2000/svg">
<path fill-rule="evenodd" clip-rule="evenodd" d="M27.2289 15.34C28.3179 15.34 29.1979 16.221 29.1979 17.309C29.1979 18.397 28.3179 19.284 27.2289 19.284C26.1409 19.284 25.2559 18.397 25.2559 17.309C25.2559 16.221 26.1409 15.34 27.2289 15.34Z" fill="white"/>
<path fill-rule="evenodd" clip-rule="evenodd" d="M16.6771 32.96C19.8701 36.069 21.6611 41.257 21.0211 44.012C20.6721 45.413 20.5321 46.929 20.8651 48.345C21.1981 49.768 22.1141 51.137 23.6771 51.746C27.5461 53.262 30.8961 55.043 33.3181 57.497C33.3491 58.382 33.2751 59.298 33.0571 60.268L30.1661 72.241C28.7091 72.788 27.3491 73.47 26.5211 74.632C25.7181 75.747 25.2761 77.107 25.1301 78.612L17.4891 78.617C17.4891 77.356 18.4011 76.257 19.4691 76.169L21.1141 77.09C22.4941 77.861 23.5421 75.741 22.1191 75.059C18.4791 73.314 17.1191 70.095 17.5511 67.464C17.9791 64.829 20.0831 62.589 24.4881 62.589C26.0251 62.62 26.0251 60.297 24.4881 60.324C19.2441 60.324 15.9111 63.417 15.3121 67.1C14.9111 69.563 15.6871 72.225 17.5511 74.371C15.9311 75.136 14.7501 76.73 14.4061 78.616H7.90107C8.31807 77.532 8.61407 76.245 9.68207 76.157C10.1301 76.12 10.5151 75.824 10.6611 75.396C12.7971 69.141 12.0461 66.319 11.4531 63.98C10.8601 61.641 10.3761 59.704 12.8491 53.428C12.8541 53.417 12.8601 53.407 12.8651 53.392C13.2181 52.376 13.1411 51.188 12.4641 50.329C11.7921 49.469 10.7291 49.005 9.40107 48.756C7.81307 48.459 7.25007 48.147 6.95807 47.803C6.66607 47.464 6.47407 46.762 6.11907 45.464C5.82707 44.376 6.19207 44.084 6.85407 43.663C8.18707 42.814 9.02107 41.527 9.50507 40.335C10.0001 39.095 11.4281 37.934 12.8801 37.543C13.4851 37.387 13.8441 36.762 13.6831 36.158C13.4481 35.283 13.6721 34.751 13.8601 34.387L15.1041 35.62C15.9071 36.803 17.3711 35.944 16.6991 34.677C16.2241 33.992 16.3221 33.32 16.6771 32.96ZM31.7971 11.372C33.9171 11.388 35.9531 11.96 37.3181 12.976C38.5371 13.883 39.5261 16.055 41.0101 18.023L44.6511 22.84C45.9791 24.596 46.2701 26.069 46.0981 27.279C45.9221 28.487 45.2291 29.498 44.3381 30.195C43.4471 30.888 42.3651 31.222 41.6091 31.154C40.8541 31.086 40.4421 30.862 40.2131 29.946L37.4891 19.055C37.1251 17.586 34.9221 18.132 35.2861 19.602L38.0101 30.487C38.4421 32.216 39.9111 33.279 41.4111 33.414C42.9061 33.545 44.4421 32.987 45.7341 31.982C46.2091 31.613 46.6511 31.17 47.0311 30.674C48.0511 31.127 48.8271 31.821 49.6461 32.794L68.4421 55.174C72.5371 60.05 72.2451 67.873 70.7091 73.613C70.5051 74.373 71.1141 75.102 71.8961 75.04C75.3391 74.748 78.3331 72.644 80.7561 68.341C80.9851 67.936 81.2511 67.789 81.6201 67.732C81.9851 67.671 82.4691 67.764 82.8961 68.004C83.7511 68.488 84.3491 69.332 83.8031 70.732C83.0061 72.759 80.5381 75.061 77.5681 76.42C74.5951 77.78 71.2091 78.217 68.6471 77.128C68.2761 76.972 67.8501 77.019 67.5271 77.264C66.4121 78.103 64.8601 78.619 63.1101 78.619L42.6991 78.614C43.2821 76.202 45.1621 74.119 47.5321 73.822C48.2611 74.399 49.0731 74.926 49.9801 75.379C51.3331 76.051 52.3441 74.019 50.9891 73.347C46.6411 71.175 44.9481 67.295 45.4741 64.046C45.5421 63.655 45.6351 63.27 45.7551 62.91C46.6461 60.181 49.2341 58.057 53.8841 58.057C55.4631 58.124 55.4631 55.718 53.8841 55.79C48.3171 55.79 44.6551 58.77 43.5151 62.541L36.6661 75.358C36.1511 76.327 35.7501 77.243 35.3131 77.806C34.8761 78.369 34.5571 78.614 33.7291 78.614H27.6411C27.7921 77.634 27.8961 76.609 28.3651 75.957C29.0321 75.025 30.0101 74.348 31.4801 73.953C31.8851 73.848 32.1931 73.525 32.2921 73.12L35.2761 60.781C35.6201 59.342 35.6251 57.932 35.5111 56.614C35.2621 53.629 34.0381 50.989 32.8801 48.338C31.2191 44.53 29.6361 40.645 30.4531 34.999C30.9221 31.764 28.5051 28.65 25.2041 28.024L15.9691 26.045C14.9891 25.837 14.6611 24.925 14.5371 24.149C14.3761 23.118 14.6931 21.956 15.5731 21.217C15.7041 21.108 16.2241 20.805 16.8651 20.524C17.5001 20.237 18.2701 19.936 19.0421 19.608C19.8131 19.28 20.5941 18.972 21.2341 18.545C22.0781 17.982 22.6711 17.576 22.9111 16.805C23.4631 15.008 24.5781 13.665 26.1871 12.742C27.7971 11.82 29.8221 11.351 31.7971 11.372ZM31.8181 9.09599C29.4791 9.07499 27.0831 9.61199 25.0571 10.773C23.2861 11.784 21.7921 13.304 21.0211 15.314C20.7651 15.975 20.5461 16.273 20.0841 16.59C19.6091 16.913 18.8851 17.205 18.1471 17.517C17.4121 17.83 16.6421 18.142 15.9431 18.454C15.2401 18.767 14.6361 19.043 14.1201 19.481C12.5571 20.788 12.0371 22.762 12.2921 24.486C12.5521 26.21 13.6561 27.882 15.4951 28.267L24.7761 30.246C26.8711 30.689 28.4801 32.809 28.2091 34.673C27.3081 40.888 29.1201 45.397 30.8021 49.246C31.5211 50.902 32.1931 52.423 32.6661 53.945C30.2861 52.169 27.4941 50.809 24.4941 49.637C23.6661 49.314 23.2291 48.757 23.0731 47.83C22.8761 46.663 23.0001 45.502 23.2291 44.527C24.1981 40.412 21.9891 34.819 18.1461 31.172C17.6251 30.677 16.8491 30.491 16.2341 30.672C15.2451 30.964 14.9061 31.485 14.7451 32.283C14.5161 31.887 13.9891 31.663 13.5621 31.735C12.8951 31.85 12.4221 32.246 12.0671 32.726C11.4991 33.491 11.4881 34.705 11.6081 35.929C9.84307 36.632 8.11907 37.71 7.40007 39.497C7.04507 40.372 6.41607 41.288 5.69207 41.716C5.06707 42.085 4.41107 42.512 4.02507 43.288C3.64007 44.064 3.60807 44.992 3.91607 46.012C4.28507 47.241 4.57207 48.481 5.22807 49.273C6.01507 50.189 7.20307 50.653 8.97907 50.986C9.99407 51.178 10.4991 51.511 10.6761 51.73C10.8481 51.954 10.9001 52.126 10.7231 52.642C8.16607 59.147 8.64007 62.131 9.25507 64.538C9.85407 66.907 10.4521 68.751 8.56707 74.423C6.35407 75.168 4.81807 77.215 4.81807 79.746C4.81307 80.371 5.31807 80.882 5.94707 80.882L33.7281 80.877C35.2231 80.877 36.3951 80.106 37.1031 79.194C37.8121 78.283 38.2181 77.267 38.6661 76.423L43.4111 67.543C43.7861 69.084 44.5261 70.584 45.6191 71.934C42.4061 73.043 39.9631 76.158 39.9631 79.746C39.9581 80.377 40.4681 80.887 41.0981 80.882H63.1091C65.0571 80.882 66.7651 80.21 68.2401 79.273C71.5271 80.47 75.2761 79.96 78.5111 78.476C81.8961 76.924 84.7821 74.451 85.9121 71.56C86.8391 69.2 85.6881 66.971 84.0161 66.023C83.1831 65.55 82.2131 65.336 81.2511 65.492C80.2871 65.653 79.3341 66.257 78.7821 67.236C76.9901 70.419 75.1531 71.673 73.0991 72.257C74.3661 66.314 74.5991 58.97 70.1831 53.71L51.3801 31.331C50.4851 30.258 49.4431 29.294 48.0891 28.654C48.1931 28.321 48.2861 27.971 48.3381 27.607C48.6091 25.752 48.0671 23.612 46.4581 21.476C45.2501 19.872 44.0311 18.263 42.8181 16.653C41.5731 15.012 40.6551 12.637 38.6771 11.164C36.7971 9.76799 34.3221 9.11699 31.8181 9.09599Z" fill="white" stroke="white"/>
<path fill-rule="evenodd" clip-rule="evenodd" d="M11.428 41.112C12.209 41.112 12.839 41.747 12.839 42.533C12.839 43.314 12.21 43.95 11.428 43.95C10.652 43.95 10.021 43.314 10.021 42.533C10.021 41.747 10.652 41.112 11.428 41.112Z" fill="white"/>
</svg>
