<svg xmlns="http://www.w3.org/2000/svg" xmlns:xlink="http://www.w3.org/1999/xlink" x="0px" y="0px" viewBox="17.82 4.96 64.38 89.64"><path transform="scale(0.195312 0.195312)" d="M264.224 287.723C231.575 287.78 205.389 285.683 178.378 263.194C163.362 284.375 148.442 307.69 141.386 332.899L136.54 356.722C135.366 364.601 133.299 365.49 127.016 370.251C119.291 376.105 113.549 383.92 111.554 393.502C109.345 404.113 111.061 418.04 116.937 427.072C128.98 445.583 148.049 442.737 165.885 445.347C168.668 445.754 171.155 447.254 173.875 447.765C177.614 448.468 180.691 441.174 180.676 438.356C180.663 435.909 179.824 433.285 179.119 430.958L176.009 420.787C171.605 405.504 167.875 388.848 167.709 372.839C167.465 349.29 182.958 355.343 183.821 363.862C184.213 367.737 183.94 371.847 184.006 375.75C184.221 388.337 186.658 400.51 189.989 412.613L193.981 426.539C197.545 439.032 197.194 443.202 190.506 454.753C189.381 456.697 188.141 458.573 187.445 460.723C192.109 471.435 212.381 469.747 222.188 467.856C241.274 464.177 235.264 457.344 231.284 443.909C228.608 434.88 226.086 425.693 224.285 416.447C222.361 406.574 217.552 368.799 223.749 360C227.332 354.913 234.96 355.597 237.238 361.625C238.079 363.852 237.793 366.565 237.61 368.9L237.007 390.404C237.384 406.497 241.163 422.712 245.869 438.013L249.271 448.548C259.287 479.071 231.466 484.355 207.246 484.32C191.972 484.298 177.912 482.192 172.125 464.941C171.952 464.427 171.501 462.21 171.21 461.924C170.754 461.477 161.499 460.781 160.048 460.641C143.806 459.076 127.474 458.116 114.282 447.394C89.6688 427.389 88.0033 385.98 110.342 363.725C114.065 360.015 120.61 356.949 121.269 352.482L122.742 343.5C128.497 313.773 147.146 276.406 166.916 252.56C160.068 245.345 154.918 235.759 150.363 226.961L146.509 231.489C137.229 241.979 123.405 242.146 113.109 232.83C108.724 228.862 105.729 223.495 103.217 218.212C91.1205 192.765 88.6645 160.841 93.6834 133.398C101.175 92.4359 130.9 43.6438 178 45.5304C180.142 45.6161 182.315 45.7845 184.423 46.1884C187.091 46.6998 187.499 47.6886 189.595 45.9261L193.446 42.802C208.889 30.9453 229.142 26.4047 248.253 25.5615C271.971 24.577 298.292 27.3607 317.75 42.2194C321.843 45.3445 321.299 47.2218 326.16 46.4552C365.379 40.2703 391.033 65.9428 406.466 98.4387C424.13 135.631 426.594 183.237 407.867 220.531C405.116 226.011 402.313 230.927 397.275 234.593C384.192 244.112 370.657 238.969 361.804 226.758C357.732 235.826 351.941 244.631 345.452 252.19C345.72 253.096 346.58 254.045 347.121 254.829L362.099 277.154C374.797 297.503 385.216 320.634 389.758 344.35L391.028 352.52C391.647 357.221 394.833 357.622 398.557 360.82L399.669 361.813C425.563 385.861 422.541 435.547 390.082 452.625C376.674 459.68 355.48 460.934 340.552 461.393C338.752 475.891 326.393 483.813 312.423 484.241C287.121 485.016 250.191 482.513 262.234 446.299L272.066 413.369C274.717 401.774 275.736 389.554 275.138 377.677C274.923 373.394 274.136 369.171 274.078 364.875C273.983 357.89 282.652 353.622 287.399 359.095C291.279 363.568 290.778 371.712 290.819 377.302L290.724 391.42C290.065 403.608 287.942 416.581 284.752 428.375L279.934 443.489C278.243 448.365 275.828 453.712 275.523 458.906C274.889 469.683 323.213 474.697 325.08 460.915C325.294 459.336 314.976 446.324 315.835 436.217C316.154 432.463 317.439 428.636 318.491 425.028L322.817 409.737C325.334 399.772 327.657 389.183 328.223 378.894L328.294 365.015C328.549 358.131 336.802 352.802 341.904 359.101C349.058 367.933 339.606 407.253 337.009 417.25C334.319 427.605 328.361 438.191 335.874 447.206L349.255 445.324C361.354 443.908 374.342 443.757 384.964 437.004C406.045 423.601 406.549 387.907 387.832 372.32C373.491 360.377 377.765 367.476 374.668 348.952C371.124 327.758 360.007 303.269 348.741 285.435L333.941 263.464C317.865 279.819 285.992 286.981 264.224 287.723ZM251.993 41.1349C224.092 41.3773 200.922 49.6369 186.19 73.7363C168.364 102.896 159.99 143.533 157.392 177.108C157.022 181.898 156.153 186.959 156.261 191.756C156.462 200.69 162.829 217.787 166.884 225.397C180.85 251.611 208.505 268.274 237.75 271.369C245.12 272.149 252.675 271.934 260.081 271.881C304.888 271.753 342.68 247.939 353.576 202.7C354.451 199.068 355.457 195.108 355.463 191.364C355.527 152.357 341.833 86.3319 315.182 60.0774C299.137 44.2713 275.239 40.7948 253.67 41.0751L251.993 41.1349ZM335.944 60.549C359.71 96.6609 366.186 135.157 370.624 176.818C371.878 188.593 371.763 200.691 374.113 212.318C377.427 228.722 386.989 226.234 393.991 213.086C402.749 195.602 407.267 165.451 404.47 145.453C399.423 109.355 377.856 61.9405 335.944 60.549ZM170.395 61.0992C155.779 62.5017 143.065 71.5155 133.892 82.5889C105.146 117.287 97.8697 175.974 119.713 215.909C121.246 218.518 123.661 222.78 126.875 223.469C140.998 226.501 139.878 199.583 140.308 191.375L141.584 174.229C145.194 134.756 154.254 95.0943 175.257 61.0342C173.682 61.0313 171.948 60.8872 170.395 61.0992Z" fill="#ffffff"></path><path transform="scale(0.195312 0.195312)" d="M309.062 152.675C283.41 152.12 280.939 115.146 308.155 112.344C330.996 110.661 337.79 149.449 309.062 152.675ZM306.972 128.536C302.14 131.198 304.199 136.777 309.789 136.455C314.769 134.744 313.039 128.23 306.972 128.536Z" fill="#ffffff"></path><path transform="scale(0.195312 0.195312)" d="M206.532 151.95L206.137 152.038C181.797 157.101 173.958 117.202 200.469 112.823C225.515 110.114 233.582 145.439 206.532 151.95ZM202.499 128.777C197.041 131.013 198.62 137.5 204.873 136.151C209.818 133.118 208.729 128.542 202.499 128.777Z" fill="#ffffff"></path><path transform="scale(0.195312 0.195312)" d="M262.16 245.616C260.076 244.593 258.16 243.297 256.331 241.875C245.43 253.455 224.477 250.12 213.422 239.932C210.606 237.337 207.187 233.661 207.075 229.625C206.955 225.322 210.818 221.53 215.125 221.726C217.851 221.849 219.704 224.385 221.406 226.195C228.282 233.51 246.783 237.913 248.219 225.5C248.394 223.982 249.211 216.197 248.011 215.629C238.463 211.108 222.294 186.165 230.851 176.711C235.12 171.994 240.229 171.68 246.194 171.326L267.674 171.272C294.499 171.372 282.513 200.906 269.998 211.461C268.235 212.948 266.149 213.792 264.497 215.29L264.638 222.829C264.683 224.507 264.656 226.528 265.564 228.01L265.721 228.25C271.604 237.586 284.164 231.996 290.491 226.065C292.296 224.372 294.217 222.338 296.715 221.769C300.191 220.976 304.12 222.936 304.751 226.641L304.806 227C306.376 236.777 294.711 244.725 286.771 247.375C278.489 250.139 269.94 249.436 262.16 245.616ZM245.2 186.937C247.914 193.712 254.781 207.418 262.244 196.309C264.067 193.475 265.234 190.324 267.022 187.553L245.2 186.937Z" fill="#ffffff"></path></svg>