 <svg xmlns="http://www.w3.org/2000/svg" version="1.1" viewBox="19.76 10 60.49 80"> <path d="m50 21.641c-10.262 0-18.609 8.3516-18.609 18.609 0 10.262 8.3516 18.609 18.609 18.609 10.262 0 18.609-8.3516 18.609-18.609 0-10.262-8.3477-18.609-18.609-18.609zm0 32.398c-7.6016 0-13.789-6.1914-13.789-13.789 0-7.6094 6.1914-13.789 13.789-13.789 7.6016 0 13.789 6.1914 13.789 13.789 0 7.6094-6.1875 13.789-13.789 13.789z" fill="#ffffff"></path> <path d="m78.27 45.449c0.87891-1.3906 1.9805-3.1094 1.9805-5.1992s-1.1016-3.8086-1.9805-5.1992c-0.48828-0.76953-0.96094-1.5117-1.1094-2.0781-0.17188-0.62891-0.12891-1.5312-0.089844-2.4805 0.070313-1.6992 0.14844-3.6289-0.85937-5.3711-1.0195-1.7695-2.7383-2.6719-4.2617-3.4609-0.82812-0.42969-1.6211-0.83984-2.0586-1.2891-0.44141-0.44141-0.85156-1.2305-1.2891-2.0586-0.78906-1.5195-1.6914-3.2383-3.4609-4.2617-1.75-1.0117-3.6719-0.92969-5.3711-0.85938-0.94922 0.039063-1.8516 0.078125-2.4805-0.089844-0.57812-0.14844-1.3086-0.62109-2.0781-1.1094-1.4023-0.89063-3.1211-1.9922-5.2109-1.9922s-3.8086 1.1016-5.1992 1.9805c-0.76953 0.48828-1.5117 0.96094-2.0781 1.1094-0.62891 0.17188-1.5312 0.12891-2.4805 0.089844-1.6992-0.070313-3.6289-0.14844-5.3711 0.85937-1.7695 1.0195-2.6719 2.7383-3.4609 4.2617-0.42969 0.82812-0.83984 1.6211-1.2891 2.0586-0.44141 0.44141-1.2305 0.85156-2.0586 1.2891-1.5195 0.78906-3.2383 1.6914-4.2617 3.4609-1.0117 1.75-0.92969 3.6719-0.85938 5.3711 0.039063 0.94922 0.070313 1.8516-0.089844 2.4805-0.14844 0.57812-0.62109 1.3086-1.1094 2.0781-0.87891 1.3789-1.9805 3.1094-1.9805 5.1992 0 2.0898 1.1016 3.8086 1.9805 5.1992 0.48828 0.76953 0.96094 1.5117 1.1094 2.0781 0.17188 0.62891 0.12891 1.5312 0.089844 2.4805-0.070312 1.6992-0.14844 3.6289 0.85938 5.3711 1.0195 1.7695 2.7383 2.6719 4.2617 3.4609 0.21094 0.10938 0.42188 0.21875 0.62891 0.32812l-7.8594 22.25c-0.30859 0.87891-0.089843 1.8594 0.57031 2.5117 0.66016 0.64844 1.6406 0.87109 2.5195 0.55859l7.9414-2.8594 4.3711 7.2109c0.44141 0.71875 1.2188 1.1602 2.0586 1.1602 0.078125 0 0.16016 0 0.25-0.011719 0.92969-0.10156 1.7109-0.71875 2.0312-1.5898l6.5586-18.559c0.87109 0.39062 1.8281 0.67188 2.8789 0.67188s2.0117-0.28125 2.8789-0.67188l6.5586 18.559c0.30859 0.87891 1.1016 1.5 2.0312 1.5898 0.070312 0.023438 0.14844 0.023438 0.23047 0.023438 0.83984 0 1.6211-0.42969 2.0586-1.1602l4.3711-7.2109 7.9414 2.8594c0.87891 0.30859 1.8516 0.10156 2.5195-0.55859 0.66016-0.66016 0.87891-1.6289 0.57031-2.5117l-7.8594-22.25c0.19922-0.10938 0.41016-0.21875 0.62891-0.32812 1.5195-0.78906 3.2383-1.6914 4.2617-3.4609 1.0117-1.75 0.92969-3.6719 0.85938-5.3711-0.039062-0.94922-0.070312-1.8516 0.089844-2.4805 0.15625-0.57812 0.62891-1.3086 1.1172-2.0781zm-40.559 36.539-2.75-4.5391c-0.58984-0.98047-1.8008-1.3984-2.8789-1.0195l-5.0117 1.8086 5.1484-14.578c0.64062 1.0703 1.4414 2.1016 2.6484 2.8008 1.75 1.0117 3.6719 0.92969 5.3711 0.85937 0.94922-0.039062 1.8516-0.070312 2.4805 0.089844 0.039062 0.011719 0.078125 0.03125 0.12109 0.050782zm35.219-3.75-5.0117-1.8086c-1.0781-0.39063-2.2812 0.039062-2.8789 1.0195l-2.75 4.5391-5.1406-14.539c0.039062-0.011719 0.078124-0.03125 0.12109-0.039063 0.62891-0.17188 1.5312-0.12891 2.4805-0.089844 1.6992 0.070313 3.6289 0.14844 5.3711-0.85937 1.2109-0.69922 2.0117-1.7305 2.6484-2.8008zm1.2812-35.379c-0.64063 1-1.3594 2.1289-1.6992 3.4219-0.35938 1.3398-0.30078 2.7109-0.25 3.9219 0.039062 1.1016 0.089843 2.2305-0.21875 2.7695-0.32031 0.55859-1.3398 1.0898-2.3203 1.6016-0.89062 0.46875-1.8789 1-2.75 1.7188-0.089844 0.070312-0.17969 0.14844-0.26953 0.23047-0.070313 0.070312-0.16016 0.12891-0.23047 0.19922-0.96875 0.96875-1.6016 2.1719-2.1484 3.2383-0.51172 0.98047-1.0391 2-1.6016 2.3203-0.53906 0.30859-1.6719 0.26172-2.7695 0.21875-1.2109-0.050781-2.5781-0.10156-3.9219 0.25-1.2891 0.35156-2.4297 1.0703-3.4219 1.6992-0.94922 0.60156-1.9219 1.2305-2.6094 1.2305-0.67969 0-1.6602-0.62109-2.6094-1.2305-1-0.64062-2.1289-1.3594-3.4297-1.6992-0.85938-0.23047-1.7305-0.28906-2.5703-0.28906-0.46094 0-0.92188 0.019531-1.3516 0.039062-1.1016 0.039062-2.2305 0.089844-2.7695-0.21875-0.55859-0.32031-1.0898-1.3398-1.6016-2.3203-0.55859-1.0703-1.1914-2.2812-2.1484-3.2383-0.070312-0.070312-0.14844-0.12891-0.23047-0.19922-0.078124-0.078126-0.17187-0.16016-0.26953-0.23047-0.87109-0.71875-1.8516-1.2617-2.75-1.7188-0.98047-0.51172-2-1.0391-2.3203-1.6016-0.30859-0.53906-0.26172-1.6719-0.21875-2.7695 0.050781-1.2109 0.10156-2.5781-0.25-3.9219-0.35156-1.2891-1.0703-2.4297-1.6992-3.4219-0.60156-0.94922-1.2305-1.9219-1.2305-2.6094 0-0.67969 0.62109-1.6602 1.2305-2.6094 0.64062-1 1.3594-2.1289 1.6992-3.4297 0.35938-1.3398 0.30078-2.7109 0.25-3.9219-0.039063-1.1016-0.089844-2.2305 0.21875-2.7695 0.32031-0.55859 1.3398-1.0898 2.3203-1.6016 1.0703-0.55859 2.2695-1.1914 3.2383-2.1484 0.96875-0.96875 1.6016-2.1719 2.1484-3.2383 0.51172-0.98047 1.0391-2 1.6016-2.3203 0.53906-0.30859 1.6719-0.26953 2.7617-0.21875 1.2109 0.050781 2.5781 0.10156 3.9219-0.25 1.2891-0.35156 2.4297-1.0703 3.4219-1.6992 0.94922-0.60156 1.9219-1.2305 2.6094-1.2305 0.67969 0 1.6602 0.62109 2.6094 1.2305 1 0.64062 2.1289 1.3594 3.4219 1.6992 1.3398 0.35937 2.7109 0.30078 3.9219 0.25 1.1016-0.050782 2.2305-0.089844 2.7617 0.21875 0.55859 0.32031 1.0898 1.3398 1.6016 2.3203 0.55859 1.0703 1.1914 2.2812 2.1484 3.2383 0.96875 0.96875 2.1719 1.6016 3.2383 2.1484 0.98047 0.51172 2 1.0391 2.3203 1.6016 0.30859 0.53906 0.26172 1.6719 0.21875 2.7617-0.050782 1.2109-0.10156 2.5781 0.25 3.9219 0.35156 1.2891 1.0703 2.4297 1.6992 3.4297 0.60156 0.94922 1.2305 1.9219 1.2305 2.6094 0.035157 0.6875-0.58594 1.668-1.1836 2.6172z" fill="#ffffff"></path></svg>